<svg width="18" height="12" viewBox="0 0 18 12" fill="none" xmlns="http://www.w3.org/2000/svg">
<path d="M17.8901 6.02284L12.2651 0.866585C12.1186 0.732297 11.8813 0.732297 11.7349 0.866585C11.5884 1.00087 11.5884 1.2184 11.7349 1.35266L16.7197 5.92213H0.375011C0.16773 5.92213 0 6.07588 0 6.26589C0 6.4559 0.16773 6.60965 0.375011 6.60965H16.7197L11.7349 11.1791C11.5884 11.3134 11.5884 11.5309 11.7349 11.6652C11.8081 11.7323 11.9041 11.7659 12 11.7659C12.096 11.7659 12.1919 11.7323 12.2652 11.6652L17.8902 6.50891C18.0366 6.37465 18.0366 6.15713 17.8901 6.02284Z" fill="#EBD6AD"/>
</svg>
