<svg width="18" height="12" viewBox="0 0 18 12" fill="none" xmlns="http://www.w3.org/2000/svg">
<path d="M0.109877 6.02284L5.73487 0.866585C5.88137 0.732297 6.11867 0.732297 6.26513 0.866585C6.41163 1.00087 6.41163 1.2184 6.26513 1.35266L1.28026 5.92213H17.625C17.8323 5.92213 18 6.07588 18 6.26589C18 6.4559 17.8323 6.60965 17.625 6.60965H1.28026L6.26513 11.1791C6.41163 11.3134 6.41163 11.5309 6.26513 11.6652C6.1919 11.7323 6.09593 11.7659 5.99999 11.7659C5.90404 11.7659 5.8081 11.7323 5.73484 11.6652L0.10984 6.50891C-0.0366211 6.37465 -0.0366211 6.15713 0.109877 6.02284Z" fill="#EBD6AD"/>
</svg>
