<svg width="246" height="447" viewBox="0 0 246 447" fill="none" xmlns="http://www.w3.org/2000/svg">
<path d="M244.938 329.45C244.078 333.387 242.245 336.573 239.141 339.723C237.607 341.26 235.363 343.097 234.203 343.772C230.986 345.571 226.722 346.546 222.458 346.359L218.904 346.246L218.53 347.746C216.436 355.956 214.116 362.18 210.6 369.116L208.244 373.765L211.274 379.876C217.258 391.948 220.513 404.507 221.074 417.442L221.298 423.028L216.66 422.765C201.847 421.903 189.242 418.529 176.674 412.005L172.334 409.756L167.322 412.343C160.514 415.83 153.707 418.416 146.487 420.291L144.879 420.703V424.715C144.879 431.613 143.158 435.962 138.557 440.574C133.994 445.11 129.617 446.91 122.997 446.91C116.376 446.91 112 445.11 107.436 440.574C102.835 435.962 101.115 431.613 101.115 424.715V420.703L99.5435 420.291C92.2868 418.416 85.479 415.83 78.6712 412.343L73.6589 409.756L69.3199 412.005C56.7517 418.529 44.146 421.903 29.3335 422.765L24.6952 423.028L24.9196 417.442C25.4807 404.507 28.6976 392.098 34.7199 379.876L37.7497 373.69L35.2435 368.778C32.2137 362.93 29.7449 356.706 28.0243 350.708L26.7899 346.321L23.4234 346.396C19.3836 346.509 15.9049 345.759 12.501 344.072C9.09713 342.422 4.45885 337.773 2.81301 334.361C-0.291639 327.988 -0.179423 320.302 3.03745 313.966C5.09475 309.955 10.2567 305.343 14.4835 303.731C17.2141 302.719 21.815 302.082 24.5456 302.382L26.8647 302.644L27.9121 298.595C29.2587 293.346 32.5129 285.136 35.468 279.475L37.8245 274.938L36.5527 272.726C29.7075 260.729 24.8074 242.508 24.8074 228.974V225.975L30.3434 226.2C43.2857 226.762 55.7043 230.024 67.6367 236.022L73.6589 239.022L78.9331 236.36C84.7309 233.436 90.641 231.149 96.4388 229.611C98.4961 229.049 100.404 228.562 100.666 228.487C101.04 228.374 101.115 227.25 101.04 223.8L100.927 219.264L97.5236 218.402C90.7532 216.677 82.7485 213.565 76.6888 210.229L73.7711 208.654L67.7115 211.653C55.6295 217.652 43.2483 220.914 30.3434 221.476L24.8074 221.701V218.702C24.8074 205.167 29.7075 186.947 36.5901 174.949L37.8245 172.738L35.655 168.576C32.0641 161.753 28.6228 152.867 27.3884 147.244L26.9395 145.069L24.6204 145.294C21.9272 145.594 17.2141 144.957 14.4835 143.944C10.2567 142.332 5.09475 137.721 3.03745 133.709C-0.179423 127.373 -0.291639 119.688 2.81301 113.314C4.45885 109.902 9.09713 105.254 12.501 103.604C15.9049 101.917 19.3836 101.167 23.4234 101.28L26.7899 101.355L28.0243 96.968C29.7449 90.9695 32.2137 84.746 35.2435 78.8974L37.7497 73.9486L34.7199 67.8375C28.735 55.7279 25.4807 43.1684 24.9196 30.234L24.6952 24.6478L29.3335 24.9102C44.146 25.7726 56.7517 29.1467 69.3199 35.6702L73.6589 37.9196L78.6712 35.3328C85.479 31.8461 92.2868 29.2592 99.5435 27.3846L101.115 26.9722V22.9607C101.115 16.0623 102.835 11.7134 107.436 7.10199C112 2.56555 116.376 0.765991 122.997 0.765991C129.617 0.765991 133.994 2.56555 138.557 7.10199C143.158 11.7134 144.879 16.0623 144.879 22.9607V26.9722L146.487 27.3846C153.707 29.2592 160.514 31.8461 167.322 35.3328L172.334 37.9196L176.674 35.6702C189.242 29.1467 201.847 25.7726 216.66 24.9102L221.298 24.6478L221.074 30.234C220.513 43.1684 217.258 55.7279 211.274 67.8L208.244 73.911L210.6 78.5599C214.116 85.4958 216.436 91.7193 218.53 99.9298L218.904 101.43L222.458 101.317C226.722 101.13 230.986 102.104 234.203 103.904C237.308 105.666 241.684 110.24 243.18 113.314C246.472 120.063 246.173 128.236 242.32 134.834C240.824 137.383 237.046 141.02 234.203 142.595C230.612 144.619 227.994 145.219 223.094 145.257L218.792 145.294L218.119 148.106C216.81 153.617 213.892 161.378 211.087 167.039L208.244 172.812L210.039 176.112C216.735 188.446 221.186 205.43 221.186 218.702V221.701L215.687 221.476C202.745 220.914 190.364 217.652 178.282 211.653L172.222 208.654L169.305 210.229C163.245 213.565 155.24 216.677 148.47 218.402L145.066 219.264L144.954 223.8C144.879 227.25 144.954 228.374 145.328 228.487C145.59 228.562 147.497 229.049 149.555 229.611C155.352 231.149 161.262 233.436 167.06 236.36L172.334 239.022L178.357 236.022C190.289 230.024 202.708 226.762 215.687 226.2L221.186 225.975V228.974C221.186 242.246 216.735 259.229 210.039 271.564L208.244 274.863L211.087 280.637C213.892 286.298 216.81 294.059 218.119 299.57L218.792 302.382L223.094 302.419C230.051 302.532 234.428 304.256 238.916 308.718C241.535 311.304 242.956 313.516 244.303 317.153C245.425 320.302 245.761 326.001 244.938 329.45ZM242.694 319.328C240.674 311.604 234.091 305.568 226.348 304.369C217.071 302.981 207.757 308.643 204.391 317.753C203.68 319.553 203.456 321.277 203.194 326.563C202.67 337.098 200.837 345.796 197.471 354.157L196.237 357.156L197.658 358.731C198.406 359.593 199.117 360.305 199.229 360.305C199.491 360.305 201.586 355.244 202.745 351.87C205.251 344.484 206.448 337.811 207.122 327.538C207.608 320.115 207.683 319.702 208.805 317.416C210.264 314.416 213.293 311.529 216.585 309.955C218.979 308.83 219.353 308.755 223.43 308.755C227.508 308.755 227.882 308.83 230.276 309.955C240.3 314.716 242.507 328.288 234.465 335.899C231.136 339.085 226.273 340.772 222.084 340.285C220.176 340.06 220.139 340.06 219.914 341.222C219.316 344.297 219.615 344.559 223.804 344.559C229.116 344.559 233.642 342.535 237.607 338.373C240.225 335.599 241.834 332.862 242.694 329.675C243.367 327.201 243.367 321.914 242.694 319.328ZM242.694 118.151C241.834 114.814 240.263 112.152 237.607 109.303C233.567 105.029 229.153 103.117 223.43 103.117C217.969 103.117 213.256 105.066 209.366 108.965C204.802 113.502 203.643 116.613 203.194 125.349C202.595 136.971 200.688 145.631 196.723 154.892L196.162 156.241L197.77 157.816L199.416 159.428L201.324 154.554C204.915 145.257 206.373 138.283 207.122 126.474C207.645 118.863 207.645 118.788 208.992 116.051C212.134 109.678 219.016 106.116 226.049 107.278C234.652 108.665 240.525 116.913 239.141 125.724C238.318 131.085 235.101 135.434 230.276 137.721C228.031 138.733 227.246 138.921 223.917 139.033L220.064 139.183L219.839 140.42C219.428 142.595 219.727 143.007 221.747 143.382C224.44 143.869 228.667 143.12 231.996 141.545C236.971 139.183 241.198 134.009 242.694 128.498C243.367 125.949 243.367 120.7 242.694 118.151ZM237.233 321.615C236.335 317.341 233.418 313.591 229.453 311.642C227.732 310.817 226.759 310.592 223.991 310.517C219.241 310.33 216.997 311.192 213.667 314.529C210.151 318.053 209.59 319.665 209.216 327.876C208.618 339.385 206.897 347.258 202.633 357.568L200.576 362.555L201.885 364.279L203.231 366.041L205.064 362.142C210.002 351.72 212.658 340.473 213.293 327.126C213.63 319.852 214.191 318.015 216.473 316.253C218.119 315.016 221.972 314.041 224.403 314.304C231.061 314.979 233.904 318.503 233.418 325.439C233.006 331.437 230.276 334.062 224.141 334.361L220.887 334.511L220.662 336.236C220.55 337.173 220.55 338.036 220.662 338.148C220.775 338.261 222.159 338.373 223.73 338.336C227.769 338.298 230.35 337.211 233.118 334.474C236.859 330.8 238.243 326.451 237.233 321.615ZM236.709 118.525C234.353 111.815 226.946 107.878 220.064 109.64C215.687 110.765 212.62 113.352 210.638 117.588C209.628 119.8 209.516 120.4 209.216 126.623C208.618 138.471 206.56 147.506 202.221 157.366L200.538 161.19L201.885 162.915L203.194 164.677L204.541 161.94C209.89 151.33 213.331 136.634 213.331 124.524C213.331 119.013 214.677 116.014 217.969 114.251C220.064 113.127 226.647 113.052 228.667 114.139C231.847 115.826 233.156 118.038 233.418 122.237C233.941 129.585 230.537 133.297 223.356 133.297C221.336 133.297 220.812 133.409 220.812 133.859C220.812 134.159 220.7 135.059 220.55 135.884L220.326 137.308L223.842 137.196C226.759 137.084 227.695 136.859 229.49 135.996C233.305 134.122 236.447 130.185 237.27 126.211C237.682 124.262 237.42 120.512 236.709 118.525ZM230.575 320.377C230.201 319.553 229.527 318.578 229.116 318.203C226.535 315.878 220.55 315.878 217.857 318.165C216.174 319.553 215.65 321.615 215.388 327.501C214.79 341.297 211.722 353.407 205.962 364.992L204.466 367.991L205.551 369.491C206.149 370.315 206.785 371.028 206.935 371.103C207.084 371.14 207.907 369.866 208.73 368.291C214.977 356.481 218.68 342.947 219.166 330.125C219.428 323.377 219.54 322.552 220.625 321.465C221.822 320.265 224.74 320.19 226.161 321.315C227.395 322.289 227.807 324.501 227.059 326.301C226.385 327.838 224.515 328.663 222.458 328.288L221.186 328.025V330.125V332.187H223.73C228.817 332.187 231.285 329.675 231.285 324.539C231.285 322.777 231.024 321.39 230.575 320.377ZM230.425 118.863C229.191 116.463 227.133 115.489 223.505 115.489C220.101 115.489 218.081 116.351 216.735 118.3C215.949 119.5 215.8 120.25 215.538 125.161C214.715 139.783 212.321 149.905 206.972 161.715C205.7 164.527 204.728 166.964 204.802 167.114C205.064 167.789 206.785 170.226 206.972 170.226C207.234 170.226 210.787 163.102 212.396 159.391C214.977 153.28 217.483 144.132 218.568 136.784C218.792 135.209 219.129 131.16 219.278 127.786C219.578 120.925 219.839 120.213 222.046 119.538C224.216 118.9 226.311 119.65 227.021 121.375C227.807 123.212 227.395 125.386 226.124 126.399C225.301 127.036 224.74 127.148 223.131 127.036L221.149 126.848L221.261 128.948L221.373 131.047L223.131 131.16C228.405 131.497 231.248 128.686 231.285 123.137C231.285 121.075 231.098 120.1 230.425 118.863ZM224.702 323.039C223.917 322.214 222.832 322.289 221.934 323.189C221.036 324.089 220.999 324.614 221.784 325.739C222.869 327.276 225.301 326.451 225.301 324.501C225.301 324.014 225.039 323.339 224.702 323.039ZM224.702 121.712C223.168 120.175 220.775 121.9 221.448 123.999C221.71 124.824 222.084 125.086 223.019 125.161C223.692 125.236 224.478 125.086 224.777 124.824C225.488 124.262 225.45 122.424 224.702 121.712ZM218.755 411.331C216.099 389.811 207.196 371.365 191.86 355.506C183.893 347.296 176.112 341.485 166.761 336.798C159.542 333.162 151.537 330.237 144.393 328.663L143.345 328.4L143.457 330.537L143.57 332.674L148.096 333.912C163.021 337.961 176.449 345.834 187.746 357.119C190.439 359.78 193.768 363.417 195.152 365.179C206.56 379.501 213.181 395.809 215.014 413.993L215.276 416.542H213.63C211.124 416.542 204.653 415.53 200.089 414.442C194.404 413.093 188.232 410.881 182.696 408.256L178.058 406.044L176.225 407.207C175.252 407.844 174.429 408.444 174.429 408.556C174.429 408.894 185.202 413.918 188.681 415.192C196.498 418.079 206.635 420.179 215.874 420.853L219.316 421.116V418.529C219.316 417.104 219.054 413.88 218.755 411.331ZM216.884 227.962C210.75 227.962 199.453 229.949 192.01 232.311C168.07 239.922 146.375 258.405 135.191 280.749C132.049 287.01 128.944 295.483 127.523 301.744L126.999 304.106L129.094 303.994L131.226 303.881L132.161 300.32C134.555 291.359 139.193 281.049 144.056 273.701C153.183 260.017 166.312 248.357 180.564 241.309C190.551 236.36 201.436 233.286 212.508 232.236C215.65 231.936 215.426 231.374 214.64 237.597C213.406 246.932 210.712 256.193 206.747 264.666C205.625 267.028 204.728 269.09 204.728 269.24C204.728 269.427 205.214 270.327 205.812 271.264L206.897 272.951L207.421 272.089C208.468 270.514 210.75 265.79 212.396 261.779C216.361 251.994 219.166 239.547 219.278 230.849L219.316 227.962H216.884ZM218.194 206.255C215.126 187.546 207.122 171.125 193.992 156.541C182.06 143.27 166.237 133.484 149.143 128.798C146.525 128.086 144.168 127.486 143.869 127.486C143.532 127.486 143.383 128.086 143.383 129.473V131.497L146.674 132.36C161.749 136.334 175.14 143.869 186.474 154.779C202.932 170.676 212.433 189.571 214.827 211.278C215.014 213.115 215.201 214.877 215.201 215.177C215.201 215.59 214.677 215.627 212.695 215.44C201.735 214.353 190.738 211.241 181.536 206.592C179.89 205.767 178.394 205.092 178.207 205.092C177.758 205.092 174.467 207.079 174.429 207.379C174.429 207.717 184.491 212.478 188.082 213.828C197.022 217.202 209.254 219.714 216.772 219.714H219.428L219.204 215.29C219.054 212.89 218.605 208.804 218.194 206.255ZM218.493 26.6348C218.007 26.6348 215.687 26.8223 213.331 27.0097C190.027 29.0343 169.679 38.632 152.846 55.428C142.635 65.6255 134.63 78.41 130.216 91.6818C128.383 97.0805 126.849 102.779 127.111 103.042C127.186 103.154 128.196 103.079 129.318 102.967C131.301 102.704 131.338 102.667 131.6 101.317C132.236 97.8304 136.089 87.2579 138.483 82.3841C147.722 63.526 164.891 46.955 183.743 38.632C193.057 34.5454 206.56 31.1338 213.48 31.1338C215.5 31.1338 215.388 30.6839 214.64 36.6449C213.406 46.0552 210.825 54.7531 206.822 63.1886L204.503 68.0625L205.663 69.8245C206.261 70.7993 206.897 71.6241 207.009 71.6241C207.421 71.6241 211.348 63.3386 213.069 58.8397C216.735 49.4294 219.129 37.9946 219.278 29.5217C219.316 26.7473 219.278 26.6348 218.493 26.6348ZM215.313 296.758C211.161 282.061 203.531 268.94 192.72 257.767L188.344 253.306L186.436 254.168C185.389 254.693 184.529 255.18 184.529 255.255C184.529 255.368 186.773 257.73 189.504 260.542C200.613 271.939 207.496 283.786 211.797 298.82C212.396 300.994 212.994 303.206 213.106 303.769L213.331 304.744L215.201 303.956C217.333 303.056 217.333 303.806 215.313 296.758ZM215.164 94.981C211.049 80.7719 203.044 67.2002 192.085 55.8404L188.381 52.0538L186.474 53.0285C185.389 53.5909 184.529 54.0783 184.529 54.1533C184.529 54.2283 186.586 56.3652 189.13 58.9521C200.276 70.2744 207.907 83.3963 212.022 98.3927C212.732 101.055 213.406 103.304 213.48 103.379C213.555 103.454 214.378 103.192 215.313 102.779L216.997 102.029L216.66 100.417C216.436 99.5175 215.8 97.0805 215.164 94.981ZM212.209 408.294C210.451 397.496 207.084 387.899 201.81 378.676C190.588 359.068 172.372 343.997 151.574 337.173C143.794 334.586 143.682 334.586 143.906 335.636C144.019 336.124 144.168 337.098 144.28 337.811C144.505 339.123 144.58 339.16 147.048 339.835C153.145 341.447 161.711 345.196 167.696 348.833C178.506 355.469 188.643 365.367 195.825 376.426C198.818 381 202.221 387.786 204.167 393.11C205.551 396.784 207.757 405.07 208.244 408.181C208.468 409.719 208.431 409.794 207.533 409.794C204.541 409.794 189.803 405.145 184.94 402.67L183.631 402.033L181.798 403.383L179.965 404.732L184.416 406.869C191.523 410.281 201.922 413.355 209.029 414.105C210.264 414.217 211.648 414.405 212.134 414.517C213.181 414.742 213.181 414.405 212.209 408.294ZM210.451 234.485C198.892 235.685 185.09 240.334 174.803 246.557C155.652 258.067 141.213 276.85 134.779 298.445C133.283 303.619 133.246 303.469 135.565 303.206C136.65 303.056 137.547 302.906 137.585 302.869C137.622 302.794 138.445 300.245 139.418 297.208C141.438 290.947 145.477 282.436 148.881 277.263C160.065 260.317 177.197 247.345 195.975 241.646C200.538 240.259 208.019 238.609 208.319 238.947C208.655 239.284 206.56 247.907 205.027 252.518C204.204 254.993 202.857 258.48 202.034 260.279L200.538 263.541L201.773 265.228C202.446 266.165 203.082 266.953 203.231 266.953C203.605 266.953 206.673 260.242 208.206 256.08C210.301 250.382 212.77 239.509 212.919 235.31L212.957 234.26L210.451 234.485ZM212.396 208.279C209.403 188.446 200.463 171.35 185.426 156.729C176.711 148.256 167.173 142.032 156.25 137.683C152.846 136.296 145.103 133.859 144.206 133.859C143.794 133.859 144.019 136.671 144.505 137.571C144.654 137.871 146.188 138.508 147.909 138.996C175.327 146.944 197.92 169.776 206.037 197.782C207.122 201.493 208.58 208.466 208.356 208.729C208.019 209.029 200.351 207.229 195.788 205.767C193.207 204.942 189.429 203.518 187.371 202.618L183.668 201.006L182.022 202.168C181.125 202.843 180.451 203.518 180.526 203.743C180.751 204.38 187.97 207.492 193.506 209.366C198.668 211.091 205.925 212.74 210.451 213.19C213.406 213.49 213.219 213.903 212.396 208.279ZM211.386 33.2708C210.488 33.3457 207.496 33.8331 204.69 34.3205C191.299 36.7199 178.619 42.2686 167.509 50.6291C150.789 63.2261 139.68 79.5722 134.069 99.8549L133.358 102.404L135.49 102.142C136.65 102.029 137.585 101.879 137.585 101.842C137.622 101.842 138.52 99.0676 139.605 95.6934C148.395 68.7748 170.651 47.6298 198.443 39.7942C202.558 38.632 207.944 37.6197 208.244 37.9196C208.58 38.2195 207.047 44.968 205.625 49.5044C204.915 51.8663 203.456 55.8029 202.446 58.2398L200.538 62.6263L201.773 64.2384C202.446 65.1007 203.044 65.888 203.119 65.963C203.344 66.2629 203.68 65.663 205.625 61.2391C209.441 52.6911 212.545 41.1814 212.882 34.2455C212.957 33.0833 212.957 33.0833 211.386 33.2708ZM210.151 300.17C206.972 288.547 201.698 278.087 194.254 268.64C191.748 265.453 184.042 257.392 182.958 256.792C182.509 256.53 181.985 256.605 181.274 256.98C178.955 258.255 178.843 257.992 183.407 262.529C195.301 274.263 202.595 287.01 206.56 302.981L207.907 308.493L209.665 307.105C210.638 306.356 211.423 305.568 211.461 305.343C211.461 305.118 210.862 302.794 210.151 300.17ZM210.525 100.567C206.486 84.6335 198.705 71.0617 186.848 59.3645C182.658 55.203 182.584 55.1655 181.611 55.6529C178.806 57.1525 178.768 56.9651 182.808 60.7892C194.853 72.224 203.381 87.3704 207.009 103.754L207.87 107.541L209.665 106.041C210.638 105.179 211.461 104.429 211.461 104.354C211.461 104.241 211.049 102.554 210.525 100.567ZM204.765 303.581C200.613 287.31 192.234 273.214 180.152 262.266C177.122 259.529 177.085 259.492 174.878 261.329L174.018 262.041L178.918 266.84C181.611 269.464 184.865 272.876 186.137 274.451C194.703 285.098 200.538 298.745 202.521 312.617L202.932 315.691L204.241 313.554C204.952 312.354 205.7 311.23 205.887 311.005C206.411 310.442 206.299 309.692 204.765 303.581ZM205.251 104.354C203.231 95.281 198.967 85.0084 194.217 77.6227C191 72.6364 186.436 67.2376 181.686 62.6637C177.01 58.2023 177.235 58.2773 175.028 60.1143L173.943 61.0142L175.589 62.4388C178.993 65.4006 185.015 71.8116 187.708 75.4107C195.264 85.4583 200.052 96.8556 202.147 109.64L203.007 114.739L204.054 112.752C204.653 111.702 205.363 110.54 205.663 110.24C206.411 109.528 206.373 109.34 205.251 104.354ZM204.541 402.408C200.987 390.186 195.526 378.788 189.055 370.053C186.399 366.491 179.928 359.78 176.299 356.819C170.315 351.982 162.347 347.446 154.529 344.409C150.415 342.834 146.487 341.56 145.664 341.56C145.141 341.56 145.141 342.834 145.627 344.559C145.964 345.834 146.151 345.946 149.255 346.958C167.36 352.845 184.042 366.904 193.581 384.3C196.349 389.323 200.8 401.096 200.164 401.733C199.94 401.958 196.087 400.833 191.711 399.221C188.307 398.021 188.568 397.984 186.025 400.008L185.09 400.758L186.96 401.545C190.514 403.12 196.872 405.295 200.688 406.232C202.82 406.757 204.84 407.282 205.214 407.394C206.074 407.657 206.037 407.544 204.541 402.408ZM205.401 241.459C204.354 241.459 194.591 244.608 190.701 246.183C179.965 250.606 169.866 257.392 160.963 266.203C154.006 273.101 149.517 279.325 145.29 287.948C142.822 292.971 139.68 301.632 140.166 302.082C140.278 302.194 141.288 302.119 142.373 301.857L144.393 301.407L145.59 297.77C147.235 292.821 151.387 284.423 154.417 279.887C162.347 268.04 172.709 258.817 185.09 252.593C191.187 249.557 199.491 246.595 200.127 247.232C200.463 247.532 198.631 253.231 197.209 256.38L196.162 258.742L197.695 260.429L199.266 262.154L200.164 260.129C201.548 256.98 203.568 250.981 204.728 246.52C205.962 241.796 206.037 241.459 205.401 241.459ZM203.792 198.156C199.94 184.66 197.059 178.961 188.718 168.613C179.03 156.541 169.043 148.818 156.662 143.794C153.071 142.332 145.627 140.12 145.328 140.42C144.954 140.795 145.851 144.469 146.375 144.769C146.674 144.919 148.694 145.669 150.864 146.419C169.828 153.167 186.661 168.426 195.339 186.722C197.134 190.546 199.491 196.882 200.052 199.431L200.314 200.706L198.892 200.443C198.069 200.293 195.675 199.469 193.506 198.644C191.336 197.819 189.317 197.069 188.98 196.957C188.606 196.844 187.708 197.332 186.773 198.194C185.539 199.319 185.352 199.656 185.8 199.919C188.531 201.456 200.463 205.392 204.316 206.03L205.925 206.292L205.663 205.055C205.513 204.342 204.653 201.231 203.792 198.156ZM202.408 41.1439C187.147 45.1929 180.975 47.8923 172.97 53.8908C160.365 63.3386 151.275 74.0985 145.216 86.808C143.196 91.082 140.802 97.3805 140.241 100.005L139.979 101.205L141.4 100.98C144.093 100.567 144.393 100.342 145.253 97.6054C149.33 85.2708 156.699 73.7611 166.275 64.6883C172.559 58.7647 178.619 54.6031 186.436 50.8166C190.663 48.7921 199.753 45.5303 200.127 45.9052C200.463 46.2426 199.491 49.6544 197.882 53.7034L196.274 57.64L197.658 59.2146C198.406 60.0394 199.117 60.7517 199.229 60.7517C199.753 60.7517 203.493 50.1042 204.952 44.6305C206.224 39.7942 206.411 40.0566 202.408 41.1439ZM200.426 311.942C200.127 309.992 199.341 306.468 198.705 304.144C197.733 300.432 197.097 298.52 195.414 294.171L195.002 293.121L190.588 297.358C181.648 306.093 171.512 312.654 159.841 317.303C155.502 319.028 147.946 321.352 144.954 321.877L143.383 322.139V324.351C143.383 326.451 143.42 326.563 144.43 326.788C162.983 330.987 177.758 338.935 191.336 352.02L195.002 355.506L195.75 353.782C197.92 348.683 200.127 339.948 200.987 332.937C201.473 328.813 201.174 316.141 200.426 311.942ZM200.987 115.301C200.164 108.028 198.032 99.255 195.75 93.8938L195.002 92.1692L191.336 95.6559C177.758 108.74 162.983 116.688 144.43 120.887C143.42 121.112 143.383 121.225 143.383 123.324V125.536L144.991 125.799C147.871 126.286 156.512 128.985 160.739 130.71C172.11 135.396 182.172 141.995 190.962 150.655L194.965 154.592L195.414 153.505C197.209 148.893 197.845 146.944 198.93 142.67C199.603 139.97 200.351 136.259 200.576 134.422C200.8 132.547 201.062 130.635 201.137 130.11C201.436 128.048 201.324 118.45 200.987 115.301ZM196.311 395.359C195.713 393.71 195.152 392.248 195.002 392.098C194.89 391.948 193.73 392.885 192.421 394.197L190.065 396.559L193.207 397.721C194.89 398.359 196.648 398.996 197.022 399.146C197.583 399.371 197.695 399.296 197.546 398.884C197.471 398.584 196.91 397.009 196.311 395.359ZM194.179 250.681C192.272 251.394 190.588 252.106 190.439 252.256C190.289 252.406 191.224 253.643 192.571 254.955C194.703 257.055 195.002 257.242 195.264 256.605C195.414 256.23 195.975 254.693 196.536 253.268C198.144 249.182 198.182 249.219 194.179 250.681ZM196.124 193.733L194.89 190.433L192.533 192.758C191.224 194.032 190.252 195.232 190.327 195.382C190.514 195.682 196.685 197.969 197.321 197.969C197.508 197.969 197.621 197.744 197.546 197.482C197.434 197.257 196.798 195.532 196.124 193.733ZM196.985 48.5671C196.611 48.7171 194.89 49.3169 193.169 49.9543L190.065 51.1165L192.346 53.4034C193.955 55.0155 194.74 55.5404 195.002 55.278C195.488 54.7906 197.583 49.5419 197.621 48.7921C197.621 48.4547 197.396 48.3796 196.985 48.5671ZM192.945 387.674L192.01 385.837L187.82 390.073C178.843 399.071 168.968 405.669 157.335 410.393C153.819 411.818 144.467 414.667 143.308 414.667C142.934 414.667 142.635 414.742 142.635 414.817C142.635 415.38 144.243 418.416 144.542 418.416C145.44 418.416 151.051 416.842 155.165 415.38C167.509 411.143 177.908 404.92 187.933 395.847C191.486 392.585 193.88 390.148 193.88 389.698C193.88 389.586 193.469 388.686 192.945 387.674ZM193.095 289.335C192.646 288.472 192.234 287.685 192.159 287.61C192.085 287.535 189.728 289.672 186.96 292.409C170.015 308.793 151.462 316.816 127.598 318.165L122.81 318.428V320.302V322.177L128.907 321.952C151.724 321.09 172.447 312.129 189.504 295.821C191.898 293.496 193.88 291.472 193.88 291.284C193.88 291.059 193.506 290.197 193.095 289.335ZM192.907 186.459L191.935 184.772L187.035 189.608C178.394 198.044 170.876 203.293 160.851 207.754C156.437 209.741 149.592 212.103 145.365 213.153L142.672 213.79L143.27 215.327C143.607 216.19 143.981 217.014 144.093 217.164C144.355 217.464 151.126 215.74 155.165 214.353C164.704 211.053 172.522 206.854 180.788 200.631C185.015 197.482 193.88 189.234 193.88 188.484C193.88 188.259 193.431 187.359 192.907 186.459ZM192.945 87.8952L191.972 86.2456L187.783 90.4821C171.25 107.053 151.2 115.976 128.495 116.876L122.772 117.101L122.884 119.013L122.997 120.925L127.897 120.85C147.31 120.587 167.21 113.239 182.995 100.492C187.484 96.8556 193.88 90.7071 193.88 89.9947C193.88 89.7323 193.469 88.7575 192.945 87.8952ZM189.915 382.163L188.98 380.513L185.576 384.112C174.018 396.334 158.345 405.22 142.522 408.519C140.839 408.894 139.343 409.269 139.193 409.381C139.044 409.494 139.605 410.356 140.39 411.293L141.812 412.943L144.168 412.455C148.732 411.518 157.821 408.256 163.021 405.707C168.744 402.858 174.354 399.259 179.292 395.284C182.247 392.923 190.888 384.525 190.888 384.037C190.888 383.887 190.439 383.062 189.915 382.163ZM189.915 283.561L188.98 281.911L184.229 286.748C181.611 289.372 178.17 292.596 176.561 293.909C162.534 305.268 146.151 311.454 127.972 312.204L122.436 312.429V313.966C122.436 316.553 122.51 316.591 127.934 316.291C151.088 315.016 169.679 306.843 185.95 290.722C188.643 288.023 190.888 285.698 190.888 285.511C190.888 285.361 190.439 284.461 189.915 283.561ZM189.915 180.986L188.943 179.561L184.791 183.797C173.157 195.645 160.327 202.993 144.43 206.929C141.4 207.679 138.894 208.354 138.931 208.466C138.931 208.579 139.567 209.404 140.353 210.304L141.812 211.953L145.29 211.091C157.447 208.092 169.978 201.831 179.666 193.845C183.107 191.033 190.888 183.31 190.888 182.748C190.888 182.56 190.439 181.773 189.915 180.986ZM189.915 82.4215L188.943 80.8094L183.294 86.4706C180.152 89.5448 175.963 93.3314 173.906 94.8686C163.619 102.554 151.799 107.69 139.455 109.865C134.966 110.652 127.972 111.365 124.605 111.365H122.436V112.939C122.436 113.839 122.585 114.739 122.735 114.926C123.146 115.526 133.508 114.926 139.081 113.989C157.746 110.84 173.232 102.592 187.035 88.5701C189.13 86.3956 190.888 84.4836 190.888 84.3336C190.888 84.1461 190.439 83.2838 189.915 82.4215ZM186.362 376.876L185.202 375.264L183.855 376.876C175.402 386.924 163.619 395.284 151.537 399.821C147.31 401.396 140.241 403.195 135.789 403.832C131.376 404.432 131.376 404.432 133.657 405.707C134.742 406.307 135.939 407.057 136.276 407.357C136.799 407.844 137.36 407.769 140.951 406.982C154.904 403.87 166.537 398.134 177.085 389.248C180.377 386.474 187.521 379.238 187.521 378.676C187.521 378.563 186.997 377.739 186.362 376.876ZM186.511 278.612C185.987 277.862 185.464 277.188 185.426 277.113C185.352 277.038 183.332 279.025 180.938 281.499C173.382 289.447 166.948 294.209 158.158 298.483C148.021 303.394 138.969 305.606 126.775 306.206C121.089 306.468 121.313 306.318 121.912 309.317L122.174 310.517L126.513 310.255C136.537 309.73 143.794 308.418 151.126 305.906C161.449 302.382 170.502 296.945 178.843 289.335C181.798 286.673 187.521 280.599 187.521 280.149C187.521 280.037 187.072 279.362 186.511 278.612ZM186.362 175.812L185.239 174.387L180.489 179.261C173.27 186.759 167.434 191.146 159.28 195.232C151.874 198.981 145.403 201.081 136.687 202.58L131.637 203.443L133.695 204.642C134.817 205.317 135.976 206.03 136.35 206.292C137.697 207.267 149.779 203.93 157.784 200.331C165.302 196.994 172.147 192.495 178.955 186.497C181.948 183.872 187.521 177.986 187.521 177.461C187.521 177.349 186.997 176.599 186.362 175.812ZM186.362 77.3228L185.202 75.7481L183.668 77.5102C178.955 83.0964 171.399 89.6948 165.265 93.5564C154.268 100.492 139.343 104.954 127.261 104.991C122.585 104.991 121.688 105.216 121.688 106.453C121.688 109.04 121.837 109.115 125.615 109.115C143.009 109.115 160.627 102.929 174.579 91.9818C177.384 89.7698 187.521 79.7596 187.521 79.2348C187.521 79.0473 186.997 78.1851 186.362 77.3228ZM181.05 370.39C174.616 363.042 166.424 356.856 157.148 352.432C152.809 350.37 147.123 348.196 147.123 348.608C147.123 349.583 149.368 355.244 151.35 359.368C153.931 364.654 157.447 370.09 161.225 374.627C163.656 377.551 170.689 384.45 171.923 385.124C172.522 385.424 173.494 384.6 178.207 379.876C181.274 376.801 183.781 374.102 183.781 373.915C183.781 373.69 182.546 372.115 181.05 370.39ZM178.394 268.977C175.402 266.015 172.746 263.578 172.484 263.578C171.773 263.578 165.676 269.015 163.095 271.939C158.046 277.712 153.632 284.386 150.901 290.272C148.993 294.359 146.936 299.87 147.198 300.17C147.572 300.507 154.529 297.733 158.831 295.558C166.836 291.472 172.821 286.973 179.442 280.037C181.835 277.525 183.781 275.238 183.781 274.938C183.781 274.638 181.349 271.976 178.394 268.977ZM179.629 167.826C172.409 160.253 166.088 155.529 157.447 151.293C152.023 148.668 147.123 146.794 147.123 147.394C147.123 147.581 147.722 149.418 148.47 151.405C151.163 158.641 155.315 165.914 160.215 172.063C163.507 176.187 171.512 184.097 172.409 184.097C173.12 184.097 183.781 173.45 183.781 172.7C183.781 172.438 181.91 170.226 179.629 167.826ZM178.207 67.8C173.494 63.0761 172.522 62.2513 171.923 62.5513C170.689 63.2261 163.656 70.1245 161.225 73.0488C155.876 79.4597 151.35 87.2579 148.47 94.9435C147.722 96.9306 147.123 98.7676 147.123 98.9551C147.123 99.555 152.771 97.3805 158.158 94.7186C164.068 91.7943 168.557 88.87 173.494 84.671C177.197 81.5592 183.781 74.5859 183.781 73.7986C183.781 73.5737 181.274 70.8743 178.207 67.8ZM156.213 371.815C146.861 359.218 141.886 344.747 141.251 328.513L141.026 322.814L139.68 323.039C136.687 323.527 136.874 323.039 137.173 328.738C138.333 351.645 146.001 368.741 162.235 384.6L166.948 389.211L168.631 388.049L170.315 386.886L164.779 381.375C161.562 378.189 157.933 374.177 156.213 371.815ZM167.098 182.598C161.562 177.761 155.203 170.038 151.5 163.665C144.991 152.53 141.138 138.208 141.138 125.274V121.75L139.754 122.012C138.969 122.125 137.996 122.237 137.622 122.237C136.949 122.237 136.912 122.499 137.173 127.561C138.034 145.594 143.009 159.878 153.22 173.6C155.913 177.161 166.2 187.846 166.986 187.846C167.434 187.846 170.277 185.897 170.315 185.597C170.315 185.484 168.856 184.135 167.098 182.598ZM165.377 237.822C153.146 231.711 141.699 228.712 127.747 227.962C122.959 227.737 121.014 227.474 120.378 227.062C119.368 226.387 118.845 224.438 119.219 222.713L119.443 221.588H117.386C115.516 221.588 115.329 221.663 115.104 222.526C114.768 223.838 115.254 226.762 116.114 228.374C117.386 230.924 118.732 231.411 125.578 231.786C139.941 232.536 150.415 235.085 162.871 240.934L166.462 242.621L168.182 241.571C169.118 241.009 169.941 240.446 169.941 240.334C169.941 240.221 167.883 239.097 165.377 237.822ZM165.751 36.6075C160.477 34.0206 154.866 31.8461 149.742 30.3464C142.373 28.2469 131.376 26.6348 124.194 26.6348C121.463 26.6348 121.201 26.5598 120.154 25.5476C119.331 24.6853 119.069 24.0854 119.069 22.9232C119.069 20.0739 120.304 18.7617 122.997 18.7617C125.765 18.7617 127.186 20.4113 126.812 23.2231L126.625 24.6478L128.533 24.8727C129.58 25.0227 130.515 25.0227 130.627 24.9102C131.114 24.4229 130.777 19.6615 130.179 18.5367C128.907 16.0998 126.251 14.6377 122.997 14.6377C119.742 14.6377 117.124 16.0623 115.815 18.5367C114.917 20.1489 114.917 25.2477 115.815 26.8598C117.311 29.7091 119.967 30.7588 125.727 30.7588C132.984 30.7588 143.27 32.5209 151.163 35.1078C155.39 36.5325 161.824 39.1943 164.741 40.769L166.462 41.7062L168.182 40.4315C169.118 39.7567 169.903 39.0819 169.903 38.9319C169.941 38.782 168.033 37.7697 165.751 36.6075ZM163.32 388.349C149.704 375.864 141.213 361.767 137.286 345.121C136.163 340.473 135.153 333.199 135.153 330.013C135.153 328.85 135.041 326.976 134.929 325.889L134.667 323.939H132.872H131.039V327.051C131.039 339.01 134.555 353.782 139.979 364.542C144.467 373.427 149.592 380.438 157.148 387.974L161.749 392.585L163.619 391.573C164.629 391.01 165.452 390.523 165.452 390.448C165.452 390.373 164.479 389.436 163.32 388.349ZM154.155 177.724C142.522 163.815 136.463 148.181 135.153 128.723C134.929 125.499 134.667 122.762 134.592 122.687C134.518 122.574 133.657 122.649 132.685 122.799L130.927 123.062L131.151 128.161C132.086 151.143 140.727 170.526 157.372 187.059C161.599 191.296 161.674 191.333 162.721 190.883C165.863 189.496 165.938 189.758 161.3 185.297C159.018 183.123 155.801 179.711 154.155 177.724ZM160.888 242.208C150.153 237.222 139.193 234.635 126.064 233.998C118.77 233.66 117.124 233.173 115.067 230.849C113.608 229.199 113.009 227.137 113.009 223.8V221.288L111.289 221.101C110.316 220.989 109.381 220.989 109.194 221.101C109.044 221.213 108.97 222.713 109.044 224.4C109.269 228.374 110.728 231.636 113.458 234.073C116.339 236.66 118.209 237.372 123.184 237.747C133.956 238.609 136.537 238.909 140.839 239.809C146.188 240.934 152.846 243.108 157.597 245.245L160.963 246.745L162.609 245.508C163.544 244.833 164.292 244.158 164.33 244.046C164.33 243.933 162.796 243.108 160.888 242.208ZM160.888 41.1064C150.265 36.1201 138.445 33.4207 125.054 32.8209C117.61 32.4834 115.703 31.6211 113.982 27.947C113.271 26.4474 113.084 25.4351 113.084 22.9232C113.084 18.8367 113.645 17.0746 115.516 15.1625C117.274 13.4005 119.555 12.6132 122.997 12.6132C126.438 12.6132 128.72 13.4005 130.478 15.1625C132.273 16.9996 132.984 19.0241 132.984 22.5483C132.984 25.3226 133.134 25.5101 135.864 25.5101H137.099L136.949 22.2109C136.837 19.699 136.575 18.4618 135.827 16.8122C134.555 14.0753 131.862 11.3385 128.982 9.91382C126.962 8.93906 126.363 8.82657 122.997 8.82657C119.63 8.82657 119.032 8.93906 117.012 9.91382C114.169 11.3385 111.663 13.8504 110.241 16.6997C109.269 18.7242 109.157 19.3241 109.157 22.6983C109.157 26.0724 109.269 26.6723 110.204 28.6219C111.588 31.4337 114.356 34.1705 117.087 35.4453C119.032 36.3825 119.855 36.5325 125.391 36.7949C132.535 37.1698 137.884 37.9196 143.383 39.2693C147.834 40.3191 155.652 43.0559 158.756 44.668L160.888 45.7178L162.609 44.3681C163.544 43.6183 164.33 42.9435 164.33 42.8685C164.33 42.7935 162.759 41.9687 160.888 41.1064ZM156.998 390.561C147.46 381.525 139.006 368.778 134.63 356.819C131.45 348.196 129.169 335.786 129.169 327.088V324.314H127.111H125.054V325.701C125.054 326.488 125.241 329.413 125.428 332.187C127.149 355.356 135.677 374.364 152.023 391.573L155.913 395.659L157.896 394.647C158.943 394.122 159.841 393.56 159.841 393.485C159.841 393.372 158.569 392.06 156.998 390.561ZM155.689 188.034C148.021 180.386 142.822 173.225 138.333 164.04C132.76 152.717 129.879 141.357 129.281 128.311L129.056 122.912L127.934 123.137C127.336 123.249 126.401 123.362 125.914 123.362H124.979L125.241 127.936C126.662 153.467 135.752 174.275 152.884 191.183L156.063 194.37L157.971 193.47C158.981 192.983 159.841 192.495 159.841 192.383C159.841 192.233 157.971 190.283 155.689 188.034ZM152.173 245.133C144.505 242.283 135.453 240.596 124.83 240.034C119.219 239.734 118.658 239.622 116.339 238.534C110.428 235.76 106.8 229.611 107.174 223.051L107.324 220.539L106.239 220.314C105.641 220.201 104.668 220.089 104.107 220.089C103.097 220.089 103.06 220.164 102.91 222.226C102.499 228.787 104.481 233.998 108.97 238.197C113.384 242.396 117.797 244.046 124.418 244.083C133.508 244.083 144.991 246.52 154.492 250.494C155.614 250.944 155.726 250.906 157.447 249.519L159.243 248.057L157.185 247.157C156.063 246.67 153.819 245.77 152.173 245.133ZM154.642 45.0055C145.851 41.5188 136.388 39.4943 127.485 39.1568C120.977 38.9319 118.358 38.482 115.703 37.1323C113.009 35.7452 109.98 32.5209 108.483 29.3716C107.361 26.9722 107.286 26.5598 107.286 22.6608C107.286 18.6492 107.324 18.4618 108.67 15.7249C110.391 12.2383 112.86 9.80136 116.376 8.15173C118.732 7.02701 119.144 6.95203 122.997 6.95203C126.849 6.95203 127.261 7.02701 129.617 8.15173C133.096 9.80136 135.602 12.2383 137.286 15.6874C138.595 18.3118 138.707 18.7617 138.782 22.2859L138.894 26.0724L140.615 26.3724C142.635 26.7098 142.971 26.4474 143.046 24.3854C143.308 17.5995 141.55 13.1006 136.762 8.60162C128.682 0.878479 116.264 1.25336 108.446 9.38892C98.9824 19.2116 101.788 34.6579 114.169 40.8439C117.012 42.2686 119.144 42.681 125.054 42.9435C134.966 43.3933 144.206 45.1929 152.098 48.1922L155.726 49.6169L157.372 48.3421C158.27 47.6298 158.906 46.955 158.794 46.805C158.644 46.6551 156.774 45.8678 154.642 45.0055ZM144.131 385.612C135.752 375.039 129.692 362.78 126.363 349.62L125.129 344.747L123.034 344.634L120.977 344.522L120.565 346.134C118.134 355.919 116.339 361.018 112.897 367.991C108.371 377.289 103.134 384.749 96.0274 392.173L91.7632 396.597L95.0174 397.796C113.87 404.62 132.124 404.62 150.976 397.796L154.268 396.597L150.378 392.585C148.245 390.411 145.44 387.261 144.131 385.612ZM147.647 48.7921C130.478 43.0934 112.71 43.4683 95.0174 49.8793L91.7632 51.079L96.0274 55.5029C103.134 62.9262 108.371 70.3869 112.897 79.6847C116.339 86.658 118.134 91.7568 120.565 101.542L120.977 103.154L123.034 103.042L125.129 102.929L126.363 98.0553C128.121 91.082 129.954 86.0956 133.096 79.6472C137.547 70.4619 144.318 60.9767 151.387 54.0033L154.268 51.1915L153.22 50.7416C152.659 50.4792 150.153 49.6169 147.647 48.7921ZM149.667 250.531C141.251 247.57 134.817 246.37 125.765 246.07C118.396 245.845 112.897 246.257 106.464 247.645C102.723 248.432 93.6708 251.244 92.4739 251.994C92.1372 252.181 92.8479 253.193 94.98 255.405C107.586 268.565 115.329 282.286 119.63 299.007L120.865 303.881H122.997H125.129L126.363 299.007C130.179 284.123 136.912 271.414 147.31 259.454C149.031 257.505 151.2 255.143 152.136 254.206C153.071 253.306 153.856 252.444 153.856 252.294C153.856 252.144 151.949 251.356 149.667 250.531ZM152.136 193.47C151.2 192.533 149.031 190.171 147.31 188.221C136.912 176.262 130.179 163.552 126.363 148.668L125.129 143.794H122.997H120.865L119.63 148.668C115.329 165.389 107.586 179.111 94.98 192.27C92.8479 194.482 92.1372 195.495 92.4739 195.682C93.6708 196.432 102.723 199.244 106.464 200.031C117.947 202.468 130.777 202.243 142.261 199.431C145.964 198.494 153.856 195.757 153.856 195.382C153.856 195.232 153.071 194.37 152.136 193.47ZM142.373 419.541C140.577 412.905 134.218 406.719 127.859 405.37C126.849 405.145 123.371 404.882 120.191 404.732C110.279 404.357 102.087 402.745 94.1571 399.633C89.8555 397.946 90.2295 397.946 87.6486 400.008L86.7508 400.721L88.9578 401.733C97.8977 405.669 108.109 407.956 120.191 408.631C127.336 409.044 129.58 409.681 132.647 412.193C138.707 417.142 140.577 425.315 137.248 432.063C135.602 435.4 133.096 437.874 129.617 439.524C127.261 440.649 126.849 440.724 122.959 440.724C118.957 440.724 118.77 440.686 116.039 439.336C112.561 437.612 110.129 435.1 108.483 431.613C107.436 429.401 107.286 428.652 107.212 425.352L107.099 421.603L105.528 421.341C104.668 421.191 103.883 421.153 103.77 421.228C103.658 421.341 103.508 422.428 103.434 423.628C102.499 436.525 114.506 447.135 127.074 444.548C138.744 442.148 145.515 431.051 142.373 419.541ZM142.073 217.427C139.867 210.903 133.919 205.542 127.411 204.155C125.989 203.855 123.371 203.593 121.575 203.593C112.86 203.593 102.536 201.531 93.8953 198.119C92.0998 197.369 90.3044 196.882 89.9677 196.994C89.5937 197.144 88.7333 197.782 88.06 198.494L86.863 199.731L88.8455 200.556C98.8328 204.792 106.8 206.592 119.481 207.492C128.42 208.129 129.992 208.616 133.508 211.916C135.266 213.565 136.276 214.952 137.323 217.014C138.632 219.714 138.707 220.051 138.707 223.5V227.175L140.502 227.399C141.512 227.549 142.41 227.549 142.522 227.437C143.495 226.462 143.27 220.914 142.073 217.427ZM135.752 419.016C134.405 416.242 131.637 413.505 128.907 412.23C126.962 411.293 126.139 411.143 120.603 410.881C107.885 410.206 97.7106 407.844 87.9478 403.308L85.0676 401.995L83.3843 403.308C82.4118 404.057 81.6637 404.732 81.6637 404.807C81.6637 405.182 89.1822 408.444 93.596 409.943C102.012 412.83 110.428 414.367 120.565 414.855C127.598 415.192 129.992 416.392 131.974 420.478C133.134 422.803 133.321 426.477 132.498 429.326C131.787 431.613 129.468 433.863 127.111 434.538C122.735 435.775 117.947 434.913 115.516 432.513C113.72 430.676 113.084 428.839 113.084 425.277C113.084 422.353 112.935 422.166 110.129 422.166H108.895L109.044 425.465C109.157 428.164 109.381 429.214 110.279 431.013C111.663 433.825 114.393 436.562 117.124 437.837C118.994 438.737 119.705 438.849 122.997 438.849C126.101 438.849 127.036 438.699 128.57 437.987C132.273 436.3 135.004 433.338 136.35 429.551C137.398 426.59 137.136 421.866 135.752 419.016ZM135.602 217.727C134.218 214.915 131.675 212.403 128.907 211.091C127.598 210.454 125.989 210.154 122.81 209.929C112.037 209.066 109.456 208.766 105.154 207.867C99.8053 206.742 93.1472 204.567 88.3967 202.43L85.0302 200.931L83.3843 202.168C82.4492 202.843 81.7011 203.518 81.6637 203.63C81.6637 204.005 88.2845 206.967 92.6983 208.541C101.189 211.578 109.419 213.153 119.705 213.678C126.849 214.015 128.009 214.39 130.44 217.089C132.348 219.226 132.984 220.876 132.984 223.875V226.387L134.705 226.575C135.677 226.687 136.612 226.687 136.799 226.575C136.949 226.462 137.024 224.963 136.949 223.275C136.799 220.726 136.575 219.714 135.602 217.727ZM130.141 420.703C128.72 417.967 125.989 416.917 120.266 416.917C108.446 416.917 93.1472 413.018 81.1774 406.944L79.382 406.007L77.998 407.057C77.2498 407.619 76.4643 408.181 76.2773 408.331C75.8658 408.669 83.9828 412.793 88.8455 414.667C98.4213 418.416 108.109 420.403 119.368 420.928C124.717 421.153 124.904 421.191 125.877 422.203C126.662 422.99 126.924 423.59 126.924 424.752C126.924 427.602 125.69 428.914 122.997 428.914C120.229 428.914 118.807 427.264 119.181 424.453L119.368 423.028L117.461 422.803C116.413 422.653 115.478 422.653 115.366 422.765C114.88 423.253 115.216 428.014 115.815 429.139C117.087 431.576 119.742 433.038 122.997 433.038C126.999 433.038 129.804 431.051 130.702 427.602C131.151 425.99 130.777 422.016 130.141 420.703ZM129.917 219.376C128.608 216.715 127.298 216.265 120.416 215.89C106.052 215.14 95.5785 212.591 83.1225 206.742L79.5316 205.055L77.8109 206.105C76.8758 206.667 76.0529 207.267 76.0529 207.379C76.0529 207.679 84.7683 211.991 88.0226 213.265C97.9351 217.164 107.286 219.151 118.433 219.714C123.146 219.939 124.904 220.164 125.615 220.614C126.625 221.288 127.149 223.2 126.775 224.963L126.588 226.087H128.57C129.842 226.087 130.665 225.9 130.814 225.6C131.226 224.738 130.665 220.801 129.917 219.376ZM124.605 423.365C124.343 423.103 123.633 422.915 122.997 422.915C121.575 422.915 120.939 423.515 120.939 424.79C120.939 426.065 121.575 426.664 122.997 426.664C124.418 426.664 125.054 426.065 125.054 424.79C125.054 424.265 124.867 423.628 124.605 423.365ZM124.493 222.338C124.194 222.076 123.52 221.851 122.997 221.851C121.725 221.851 120.939 222.601 120.939 223.838C120.939 225.075 121.725 225.787 122.997 225.787C124.268 225.787 125.054 225.075 125.054 223.838C125.054 223.275 124.792 222.601 124.493 222.338ZM124.605 21.4611C124.343 21.1986 123.633 21.0112 122.997 21.0112C121.575 21.0112 120.939 21.611 120.939 22.8857C120.939 24.1604 121.575 24.7603 122.997 24.7603C124.418 24.7603 125.054 24.1604 125.054 22.8857C125.054 22.3608 124.867 21.7235 124.605 21.4611ZM124.081 339.723L123.857 338.56H120.229C115.516 338.56 108.035 339.46 102.686 340.66C91.7632 343.097 81.9255 347.783 72.1253 355.169C69.2451 357.344 58.4723 367.841 58.4723 368.478C58.4723 368.628 58.996 369.491 59.6319 370.353L60.7915 371.928L62.3251 370.165C67.0382 364.579 74.5941 357.981 80.7286 354.119C91.6509 347.258 106.613 342.722 118.508 342.685C124.268 342.647 124.605 342.46 124.081 339.723ZM124.081 138.396L123.82 137.196L119.481 137.421C109.606 137.946 103.284 139.033 95.5037 141.582C86.9005 144.394 78.7835 148.818 71.2276 154.817C68.0855 157.291 61.0159 164.152 59.3326 166.327L58.3975 167.601L59.4449 168.988C60.0059 169.776 60.5296 170.488 60.6044 170.563C60.6418 170.638 62.7365 168.576 65.2427 165.952C72.6116 158.266 79.2697 153.317 88.0226 149.081C98.0099 144.282 107.137 142.07 119.219 141.47C124.867 141.208 124.643 141.357 124.081 138.396ZM123.259 332.712C123.072 332.412 121.276 332.374 117.012 332.599C104.444 333.237 94.0823 335.861 83.3469 341.185C77.175 344.222 72.836 346.996 67.5244 351.27C63.7465 354.307 55.1058 362.705 55.1058 363.342C55.1058 363.492 55.5547 364.392 56.0784 365.254L57.0509 366.866L62.6991 361.205C65.8412 358.131 70.0306 354.344 72.0879 352.807C82.3744 345.121 94.1945 339.985 106.538 337.811C111.027 337.023 118.022 336.311 121.426 336.311H123.558V334.699C123.558 333.837 123.408 332.937 123.259 332.712ZM118.658 131.46C100.366 131.685 82.4118 138.208 67.9359 149.83C64.0083 153.017 57.8738 158.791 56.1906 160.928L55.031 162.352L56.041 164.04L57.0135 165.764L62.1381 160.59C77.9606 144.619 96.2892 136.371 118.059 135.471L123.595 135.246L123.483 133.334L123.371 131.422L118.658 131.46ZM120.565 326.638C114.356 326.338 101.975 328.138 94.1571 330.537C79.8682 334.849 68.0855 341.897 56.041 353.257C51.9638 357.119 51.7393 357.531 53.0111 359.705L53.9837 361.393L58.3975 357.006C63.2976 352.095 66.7015 349.208 71.9383 345.609C85.3294 336.386 100.516 331.4 117.124 330.8L123.221 330.575L123.109 328.663L122.997 326.751L120.565 326.638ZM117.76 125.461C95.3167 125.686 71.9383 136.034 54.9562 153.317L51.9638 156.316L52.8615 158.228C53.3478 159.241 53.834 160.103 53.9089 160.103C54.0211 160.103 56.228 158.041 58.809 155.492C61.3899 152.942 64.8686 149.793 66.5145 148.481C81.327 136.709 98.0473 130.523 117.872 129.51L123.221 129.248L123.109 127.336L122.997 125.424L117.76 125.461ZM120.154 312.317C117.835 290.984 108.446 271.639 93.1098 256.493L89.9303 253.306L88.0226 254.206C87.0127 254.693 86.1523 255.143 86.1523 255.255C86.1523 255.33 88.06 257.28 90.3792 259.604C107.062 276.213 115.74 295.783 116.713 318.99L116.937 324.764L118.059 324.539C118.658 324.426 119.593 324.314 120.116 324.314H121.052L120.79 320.077C120.64 317.79 120.378 314.266 120.154 312.317ZM120.565 115.489C118.845 92.3192 110.316 73.3112 93.9701 56.1028L90.0799 52.0163L88.0974 53.0285C87.0501 53.5534 86.1523 54.0408 86.1523 54.1158C86.1523 54.1533 88.3967 56.4777 91.1273 59.252C107.399 75.8981 115.74 95.0185 116.713 118.001L116.937 123.362H118.957H120.939V121.937C120.939 121.187 120.752 118.263 120.565 115.489ZM118.246 344.559C117.76 344.559 116.787 344.672 116.077 344.784L114.768 345.009L113.683 348.983C109.643 363.867 102.237 376.876 91.4639 388.086C78.5216 401.583 63.4098 410.393 46.3155 414.405C41.5651 415.53 35.0191 416.542 32.5129 416.542H30.7549L30.9793 414.217C32.1015 403.308 34.7947 393.635 39.3207 384.112L41.4902 379.613L40.3307 377.851C39.7322 376.876 39.0963 376.052 38.9841 376.052C38.5726 376.052 34.645 384.337 32.9244 388.836C29.2961 398.246 26.6777 410.693 26.6777 418.754V421.116L30.119 420.853C54.9562 419.091 75.9033 409.569 93.222 392.173C105.341 379.988 113.346 366.041 117.947 349.058C119.256 344.222 119.219 344.559 118.246 344.559ZM115.142 143.757C114.88 143.832 114.393 145.144 114.019 146.681C112.785 151.78 110.428 158.004 107.473 164.04C102.798 173.6 97.6358 180.836 90.0799 188.409C74.2948 204.23 55.1432 213.378 33.5229 215.44C30.3434 215.74 30.5679 216.302 31.3534 210.079C32.5503 201.006 34.9443 192.608 38.7222 184.285C41.6399 177.799 41.5276 178.511 40.2559 176.487C38.9093 174.425 38.9841 174.387 36.8146 178.774C33.2236 185.934 30.1564 194.707 28.5854 202.28C27.5754 207.079 26.6777 214.203 26.6777 217.314V219.714H29.109C35.2435 219.714 46.54 217.727 53.9837 215.365C69.0206 210.566 82.9729 201.718 94.606 189.646C106.164 177.574 114.057 163.365 118.097 147.356L118.994 143.794L117.311 143.682C116.376 143.607 115.403 143.644 115.142 143.757ZM113.982 309.317C111.812 294.883 106.127 281.724 97.0747 269.952C94.4564 266.578 84.7683 256.455 84.1699 256.455C83.9454 256.455 83.0477 256.867 82.15 257.43L80.5415 258.367L84.6935 262.379C92.2494 269.614 97.8228 277 102.124 285.511C107.399 295.896 109.98 305.906 110.84 318.84C111.064 322.139 111.326 324.914 111.401 324.989C111.476 325.101 112.336 325.026 113.309 324.876L115.067 324.614L114.842 318.953C114.693 315.803 114.319 311.492 113.982 309.317ZM113.87 107.428C112.374 98.4677 110.279 91.8693 106.351 83.8087C101.975 74.7734 96.7381 67.5751 88.8455 59.7019L84.2447 55.0905L82.3744 56.1028C81.3644 56.6652 80.5415 57.2275 80.5789 57.34C80.5789 57.4525 81.8507 58.6522 83.3843 60.0019C91.0525 66.7128 99.0946 77.5102 103.396 86.8455C107.511 95.7683 110.84 109.49 110.84 117.663C110.84 118.825 110.952 120.7 111.064 121.75L111.326 123.737H113.196H115.067L114.842 117.813C114.693 114.589 114.281 109.902 113.87 107.428ZM111.064 242.246L109.157 240.971L105.79 241.646C93.2968 244.083 81.0278 249.857 70.6665 258.105C67.113 260.917 59.5197 268.34 58.809 269.614C58.5845 270.064 58.809 270.664 59.5945 271.789L60.7166 273.326L65.4671 268.452C73.023 260.617 79.1949 256.08 88.0974 251.806C95.6159 248.17 104.032 245.695 112.336 244.608C114.057 244.383 114.244 244.27 113.683 243.933C113.271 243.708 112.112 242.958 111.064 242.246ZM109.718 40.3191C109.194 39.8317 108.596 39.9066 104.855 40.7314C96.177 42.6435 87.3867 46.0927 80.3919 50.2542C73.2101 54.5657 65.5045 60.8642 60.567 66.5253L58.3975 68.9622L59.5945 70.6868L60.7915 72.4114L62.3251 70.6118C71.1902 60.3393 81.4019 53.0285 93.6334 48.1922C97.7854 46.5426 105.528 44.5181 110.092 43.8807C114.618 43.2434 114.618 43.2434 112.336 41.9687C111.251 41.3688 110.054 40.619 109.718 40.3191ZM110.578 345.534C109.568 345.646 108.67 345.871 108.483 346.021C108.334 346.171 107.773 347.783 107.249 349.658C99.0198 377.476 76.0903 399.821 47.5499 407.881C43.4727 409.006 38.0489 410.056 37.7497 409.756C37.4505 409.456 39.2459 401.583 40.5177 397.609C41.1536 395.547 42.5376 391.873 43.5475 389.473L45.4178 385.087L44.1834 383.4C43.5101 382.463 42.8368 381.713 42.7246 381.675C42.4628 381.675 40.2933 386.362 38.7222 390.336C36.0665 397.047 33.8595 405.819 33.2236 412.118L32.9618 414.592L34.5702 414.405C35.468 414.33 38.4978 413.843 41.3032 413.355C73.1352 407.694 100.366 383.812 110.391 352.807C112.897 345.009 112.897 345.196 110.578 345.534ZM110.428 144.469C109.344 144.619 108.446 144.769 108.409 144.807C108.371 144.882 107.548 147.431 106.576 150.468C104.556 156.729 100.516 165.202 97.1121 170.413C86.0401 187.284 68.7588 200.331 50.0187 206.03C45.6797 207.342 38.0115 209.066 37.7123 208.766C37.413 208.504 39.0215 201.381 40.3681 196.919C41.0788 194.52 42.5376 190.546 43.5475 188.146L45.4178 183.722L44.2208 182.223C43.5475 181.398 42.9116 180.723 42.762 180.723C42.4254 180.723 39.6948 186.572 38.0863 190.808C37.3382 192.72 36.1787 196.544 35.468 199.281C34.1588 204.417 32.7748 212.815 33.1488 213.228C33.5229 213.565 39.807 212.665 44.6323 211.616C56.4898 208.954 68.2725 203.48 78.185 196.057C94.1571 183.985 105.267 168.314 111.064 149.606C112.785 144.169 112.785 144.207 110.428 144.469ZM108.035 310.93C106.538 300.282 102.91 289.972 97.5984 281.199C93.409 274.338 87.3119 267.028 81.5141 261.929C78.7835 259.529 78.7087 259.529 76.4643 261.366L75.5666 262.116L77.7735 264.028C90.9028 275.426 99.9175 290.572 103.134 306.768C104.257 312.242 104.855 317.865 104.855 322.514V325.926L106.276 325.664C107.025 325.551 107.997 325.439 108.371 325.439C109.044 325.439 109.082 325.176 108.82 320.152C108.708 317.228 108.334 313.067 108.035 310.93ZM107.997 109.828C105.491 91.6068 97.748 76.7229 83.7584 63.0761L79.0453 58.4647L77.3621 59.627L75.6788 60.7892L81.2148 66.3004C84.3943 69.4496 88.06 73.5361 89.7807 75.8606C99.132 88.4576 104.107 102.929 104.743 119.163L104.967 124.861L106.314 124.636C109.306 124.149 109.119 124.636 108.82 118.938C108.67 116.126 108.334 112.039 107.997 109.828ZM105.641 237.372L104.182 235.722L100.703 236.585C89.0326 239.434 76.7636 245.47 67.3 253.006C64.2702 255.405 56.9013 262.491 55.7791 264.066L55.031 265.115L56.041 266.615L57.0509 268.152L61.2029 263.878C72.8734 251.994 85.6661 244.683 101.563 240.746C104.593 239.996 107.099 239.322 107.062 239.209C107.062 239.097 106.426 238.272 105.641 237.372ZM103.583 34.8829C102.499 34.8829 95.8778 36.7574 91.5761 38.2571C79.3446 42.606 65.9534 51.5289 57.425 61.1266L55.031 63.751L56.041 65.4756L57.0135 67.1627L60.4174 63.5635C71.9009 51.4164 87.4241 42.5685 103.209 39.1943C104.818 38.8569 106.389 38.5195 106.651 38.407C107.436 38.1821 104.556 34.8829 103.583 34.8829ZM105.341 346.584C104.967 346.696 104.032 346.884 103.247 347.033C101.638 347.296 101.788 347.071 99.8053 352.62C95.8404 363.567 88.6959 374.477 80.0179 382.725C73.5467 388.836 67.7115 392.885 59.7815 396.709C55.2929 398.884 46.2407 402.183 45.8667 401.77C45.5674 401.47 46.6896 397.496 48.1858 393.485C48.8965 391.648 49.3454 389.961 49.1958 389.698C49.0461 389.473 48.4477 388.724 47.8866 388.049C47.0262 387.036 46.7644 386.886 46.4652 387.336C45.1934 389.323 41.0414 402.033 40.2933 406.157C40.0688 407.507 40.1062 407.582 40.9292 407.394C41.4154 407.282 42.9117 406.944 44.2582 406.644C45.6048 406.344 48.4103 405.557 50.4301 404.882C75.7162 396.784 96.1396 376.539 104.668 351.195C106.164 346.771 106.239 346.321 105.341 346.584ZM105.379 145.482C105.079 145.482 104.107 145.669 103.209 145.894L101.601 146.306L100.404 149.905C98.758 154.854 94.606 163.252 91.6509 167.714C83.6462 179.636 73.0978 189.046 60.7915 195.157C54.844 198.119 46.5026 201.081 45.8667 200.443C45.5674 200.181 46.9888 195.307 48.4102 191.67L49.495 188.934L48.111 187.247C47.1385 186.047 46.6522 185.709 46.4652 186.047C44.8193 189.084 40.1436 203.668 40.1436 205.805C40.1436 206.479 42.5002 206.105 48.111 204.492C70.7787 197.969 89.9677 181.735 100.479 160.215C102.76 155.529 105.94 147.281 105.977 145.931C105.977 145.706 105.715 145.482 105.379 145.482ZM101.9 230.511C101.601 230.174 94.5686 232.011 90.0799 233.586C77.5117 238.084 66.1404 245.17 56.5272 254.543C54.0959 256.867 52.1134 258.967 52.1134 259.192C52.1134 259.417 52.5623 260.317 53.0859 261.216L54.0585 262.904L58.9586 258.067C67.5992 249.632 75.1177 244.383 85.1424 239.921C89.5562 237.934 96.4014 235.573 100.628 234.523L103.321 233.885L102.723 232.348C102.386 231.486 102.012 230.661 101.9 230.511ZM102.611 30.9838C102.162 30.0465 101.638 29.2592 101.451 29.2592C100.553 29.2592 94.98 30.8338 90.8654 32.2585C78.4842 36.5325 67.9733 42.7935 58.0983 51.8288C55.9287 53.8158 53.6844 55.9528 53.0485 56.5902L51.9638 57.7524L52.9737 59.8144L53.9837 61.8389L58.1731 57.6024C65.8412 49.9168 73.2849 44.593 82.8981 39.9442C88.6211 37.1698 95.1296 34.7704 100.441 33.4957C102.05 33.1208 103.359 32.7834 103.359 32.7834C103.359 32.7459 103.022 31.9586 102.611 30.9838ZM101.04 321.877C98.0473 321.352 90.4914 319.028 86.1523 317.303C74.4818 312.654 64.345 306.093 55.4051 297.358L50.9912 293.121L50.5798 294.171C46.6896 304.106 45.1186 311.529 44.7445 321.502C44.5201 328.025 44.9315 333.574 46.1659 339.91C46.914 343.809 48.9339 350.708 50.2805 353.819L51.0286 355.544L54.2829 352.357C67.8985 339.123 82.8607 331.025 101.601 326.788C102.573 326.563 102.611 326.451 102.611 324.351V322.139L101.04 321.877ZM99.3565 315.316C84.1324 311.342 70.7787 303.769 59.3326 292.709C53.6096 287.16 49.6446 282.436 45.7545 276.588C37.4505 264.141 32.5503 250.194 30.9793 234.56L30.7175 232.011L33.4855 232.273C44.0712 233.286 53.6096 235.947 63.4472 240.634C67.113 242.358 67.9733 242.658 68.497 242.283C68.8336 242.021 69.6939 241.534 70.3672 241.196C71.0031 240.859 71.5642 240.446 71.5642 240.334C71.5642 239.959 61.6144 235.235 57.9112 233.81C49.1584 230.511 36.6275 227.962 29.2213 227.962H26.5655L26.7899 232.161C28.3235 259.192 41.7521 284.573 63.8961 302.269C70.3298 307.405 79.5316 312.654 87.7234 315.878C91.7258 317.416 100.927 320.19 102.124 320.19C102.461 320.19 102.611 319.59 102.611 318.203V316.178L99.3565 315.316ZM101.601 120.887C83.0103 116.688 68.2351 108.74 54.657 95.6559L50.9912 92.1692L50.2431 93.8938C48.9339 96.9681 46.914 103.866 46.1659 107.765C44.9315 114.101 44.5201 119.65 44.7445 126.174C45.0064 132.922 45.6422 137.346 47.2881 143.532C48.2606 147.244 48.8965 149.156 50.5798 153.505L51.0286 154.592L55.031 150.655C64.0083 141.92 73.8834 135.396 85.2546 130.71C89.4814 128.985 98.1221 126.286 101.04 125.799L102.611 125.536V123.324C102.611 121.225 102.573 121.112 101.601 120.887ZM97.8977 113.764C67.8985 105.591 42.9491 80.8844 34.3084 50.929C33.0366 46.5426 31.5404 38.5195 31.0167 33.4582L30.7549 31.1338H32.3633C34.8695 31.1338 41.3406 32.146 45.9041 33.2332C51.5897 34.5829 57.7616 36.7949 63.2602 39.4193L67.8611 41.5938L69.6939 40.394C70.7039 39.7192 71.5268 39.0819 71.5268 38.9319C71.5642 38.557 64.532 35.1828 59.9685 33.3832C51.9638 30.1965 41.8643 27.8346 32.6626 27.0097C26.1166 26.4474 26.6777 26.2599 26.6777 28.9968C26.6777 30.2715 26.9395 33.4582 27.2388 36.0451C29.7075 57.265 38.6848 76.123 53.7218 91.7568C63.7091 102.104 74.1078 109.19 86.5264 114.139C90.6784 115.789 98.3091 118.113 101.227 118.638L102.648 118.9L102.536 116.951L102.424 115.001L97.8977 113.764ZM101.489 310.105C101.339 309.805 99.8053 309.167 98.0847 308.68C84.8432 304.856 72.2375 297.283 62.0258 287.01C51.4027 276.325 44.0338 263.916 39.9566 249.894C38.8719 246.183 37.413 239.209 37.6375 238.947C37.9741 238.647 45.6422 240.446 50.2057 241.909C52.7867 242.733 56.5646 244.158 58.6219 245.058L62.3251 246.67L63.9709 245.508C64.8686 244.833 65.5419 244.158 65.4671 243.933C65.2427 243.296 58.0234 240.184 52.4874 238.309C47.3255 236.585 40.0688 234.935 35.5428 234.485C32.5877 234.185 32.7748 233.773 33.5977 239.397C36.5153 258.667 45.2682 275.913 59.37 290.01C67.6741 298.333 76.6888 304.481 86.9753 308.905C91.1647 310.705 98.4587 313.179 100.927 313.666L102.162 313.891L101.975 312.242C101.863 311.379 101.638 310.405 101.489 310.105ZM101.713 109.865C101.489 108.553 101.451 108.515 98.3465 107.653C96.6259 107.203 93.1098 105.966 90.6036 104.954C79.1949 100.342 69.9932 94.0813 61.0907 84.896C49.3828 72.7863 41.8643 58.7646 38.4978 42.831C37.9741 40.3191 37.5253 38.1821 37.5253 38.0696C37.5253 36.7574 55.031 41.9312 61.0533 45.0055L62.3625 45.6428L64.1579 44.2931L65.9534 42.9435L63.4472 41.6687C57.6494 38.7444 50.1309 36.1201 43.4727 34.6954C40.1436 33.9456 33.2985 33.0083 33.0366 33.2332C32.7 33.6082 34.645 44.4806 35.8794 49.017C40.1062 64.5008 47.9988 77.6976 60.193 89.6573C69.3199 98.5802 79.0827 104.879 90.641 109.303C93.4464 110.39 101.451 112.864 102.124 112.864C102.199 112.864 102.162 112.489 102.087 112.002C101.975 111.552 101.825 110.577 101.713 109.865ZM99.9175 303.056C99.6931 302.794 99.2817 302.569 99.0198 302.569C98.0099 302.569 90.5288 299.57 86.6012 297.583C74.3322 291.397 63.5969 281.799 55.6669 269.952C52.0012 264.441 47.1011 253.493 45.9415 248.245L45.6797 246.97L47.1011 247.232C47.924 247.382 50.3179 248.207 52.4874 249.032C57.9112 251.131 57.6868 251.094 59.3326 249.407L60.754 247.945L57.8364 246.707C52.1508 244.308 40.8543 241.009 40.2933 241.571C39.994 241.871 43.6224 254.318 45.343 258.929C50.7294 273.289 63.7839 288.435 78.7461 297.77C83.1599 300.507 91.6509 304.519 96.364 306.093C98.571 306.843 100.479 307.443 100.591 307.443C100.965 307.443 100.366 303.581 99.9175 303.056ZM100.366 103.117C100.03 101.842 99.8427 101.729 96.7381 100.717C78.5964 94.7936 61.951 80.8094 52.4126 63.3761C49.6446 58.3523 45.1934 46.58 45.8293 45.9427C46.0537 45.7178 49.9065 46.8425 54.2829 48.4546C57.6868 49.6543 57.425 49.6918 59.9685 47.6673L60.9037 46.9175L59.0334 46.1302C53.9088 43.8807 40.7047 39.7942 40.2185 40.2816C40.0314 40.5065 43.1735 51.079 45.0064 56.4027C48.7095 67.1627 54.8066 76.3105 64.6816 85.8707C71.4894 92.4691 77.2873 96.5182 85.9653 100.717C90.4166 102.892 98.9824 106.116 100.217 106.116C100.815 106.116 100.89 104.954 100.366 103.117ZM95.8029 349.47C91.2769 351.083 83.4966 355.019 79.6064 357.606C77.7735 358.843 74.5567 361.28 72.4994 363.005C68.7962 366.116 62.2129 373.09 62.2129 373.877C62.2129 374.102 64.719 376.801 67.7863 379.876C72.4994 384.6 73.4719 385.424 74.0704 385.124C75.3048 384.45 82.337 377.551 84.7683 374.627C88.2096 370.503 91.838 364.992 94.0823 360.568C95.9152 356.856 98.8328 349.733 98.8702 348.796C98.8702 348.496 97.8603 348.683 95.8029 349.47ZM97.2244 295.296C93.7831 286.448 89.5562 279.587 82.8233 271.864C80.3171 269.015 74.22 263.578 73.5093 263.578C72.836 263.578 62.2129 274.263 62.2129 274.976C62.2129 275.238 64.1579 277.525 66.5519 280.037C73.1727 286.973 79.1575 291.472 87.1623 295.558C90.4914 297.245 97.8977 300.32 98.6832 300.32C99.0946 300.32 98.8328 299.382 97.2244 295.296ZM96.177 147.956C88.9952 150.505 79.5316 155.941 73.3971 161.078C69.8436 164.04 62.2129 171.988 62.2129 172.7C62.2129 173.45 72.8734 184.097 73.5841 184.097C74.4818 184.097 82.4866 176.187 85.7783 172.063C88.9952 168.014 92.025 163.29 94.419 158.566C95.99 155.417 98.8328 148.331 98.8702 147.469C98.8702 147.131 98.0099 147.281 96.177 147.956ZM97.5236 94.9435C94.6434 87.2579 90.1173 79.4597 84.7683 73.0488C82.337 70.1245 75.3048 63.2261 74.0704 62.5513C73.4719 62.2513 72.4994 63.0761 67.7863 67.8C64.719 70.8743 62.2129 73.5737 62.2129 73.7986C62.2129 74.5859 68.7962 81.5592 72.4994 84.671C77.4369 88.87 81.9255 91.7943 87.8356 94.7186C93.222 97.3805 98.8702 99.555 98.8702 98.9551C98.8702 98.7676 98.2717 96.9306 97.5236 94.9435ZM68.871 383.775C55.7791 372.452 46.7644 355.994 43.8468 338.036L42.9865 332.937L41.9391 334.886C41.3406 335.936 40.5925 337.136 40.2559 337.511C39.6948 338.148 39.6948 338.486 40.4803 342.235C42.3506 351.045 46.4278 361.205 51.1034 368.816C55.0684 375.152 61.3899 382.687 66.6641 387.261L68.8336 389.136L70.3672 388.011C71.2276 387.374 71.9383 386.737 71.9009 386.624C71.9009 386.474 70.5169 385.199 68.871 383.775ZM67.0382 180.836C59.6319 173.6 55.1806 167.714 51.1783 159.728C47.5125 152.417 44.5949 143.082 43.5101 135.246L43.0613 131.985L41.8643 133.934C41.191 135.021 40.4429 136.296 40.1436 136.746C39.6574 137.458 39.7696 138.208 41.0414 143.27C44.9315 159.091 52.1134 171.838 63.4846 183.085C68.6466 188.221 68.5718 188.146 70.4046 186.834C71.265 186.272 71.9383 185.747 71.9383 185.672C71.9383 185.634 69.7314 183.422 67.0382 180.836ZM63.1106 386.811C55.9287 379.988 50.0561 372.003 45.7545 363.117C42.6498 356.744 41.2284 352.845 39.4329 345.646L38.0863 340.173L36.2909 341.71L34.4954 343.284L35.4306 346.996C37.8245 356.481 41.7147 365.479 46.7644 373.24C50.7668 379.388 56.228 385.874 61.0533 390.186L63.5969 392.473L65.1305 391.573C65.9908 391.048 66.7015 390.523 66.7015 390.411C66.7015 390.298 65.0931 388.686 63.1106 386.811ZM62.4747 185.072C60.193 182.785 57.2005 179.598 55.8913 177.986C48.0362 168.276 42.3132 156.616 39.3207 144.244L38.1238 139.183L36.3283 140.533C34.2336 142.145 34.2336 141.92 36.2161 148.856C39.3955 159.878 44.5575 169.926 51.7393 179.036C54.2455 182.223 61.951 190.283 63.0732 190.883C63.5595 191.146 64.1205 191.033 65.2053 190.433C66.0282 189.946 66.7015 189.496 66.7015 189.421C66.7015 189.309 64.7938 187.359 62.4747 185.072ZM57.2379 389.098C45.7919 377.589 38.1238 364.467 33.9717 349.283C33.261 346.621 32.5877 344.372 32.5129 344.297C32.4381 344.222 31.6152 344.484 30.7175 344.896L28.9968 345.609L29.5579 348.008C30.6801 352.92 33.8969 361.805 36.5527 367.279C41.0414 376.426 48.8217 387.186 55.5921 393.597L57.6868 395.584L59.5945 394.61C60.6044 394.085 61.4647 393.597 61.4647 393.522C61.4647 393.41 59.5571 391.46 57.2379 389.098ZM57.4998 188.221C46.2033 176.974 38.8345 164.602 34.3832 149.418C33.6725 146.944 32.9992 144.469 32.887 143.907L32.6626 142.895L30.8671 143.682C29.8946 144.094 29.0716 144.507 29.0342 144.544C28.8098 144.694 31.6152 154.329 32.887 157.704C37.3756 169.776 44.2582 180.611 53.273 189.908L57.6494 194.37L59.5571 193.508C60.6044 192.983 61.4647 192.495 61.4647 192.383C61.4647 192.233 59.6693 190.358 57.4998 188.221ZM50.8042 392.323C50.2805 393.035 48.2232 398.921 48.4477 399.109C48.5225 399.184 50.2431 398.659 52.263 397.909L55.9287 396.559L53.5348 394.16C51.6271 392.21 51.1034 391.873 50.8042 392.323ZM51.7393 250.681C50.0935 250.082 48.6347 249.669 48.5599 249.782C48.4477 249.857 48.7095 250.869 49.121 251.994C49.5324 253.118 50.1683 254.768 50.4676 255.668L51.066 257.28L53.46 254.918C56.2654 252.144 56.3028 252.256 51.7393 250.681ZM50.9538 190.771C50.4676 191.296 48.2606 197.632 48.4851 197.819C48.7095 198.081 51.7019 197.144 54.3203 196.019L56.0036 195.307L53.6096 192.908C52.3004 191.558 51.1034 190.621 50.9538 190.771ZM52.1134 49.6918C50.1683 48.9795 48.5599 48.4546 48.4851 48.5296C48.298 48.7171 50.6172 54.9031 51.0286 55.3155C51.2531 55.5404 52.1882 54.8656 53.6096 53.4409C54.844 52.2412 55.7791 51.1915 55.7417 51.1165C55.6669 51.079 54.0211 50.4417 52.1134 49.6918ZM48.0362 289.822L46.6148 288.172L44.6697 293.196C41.1162 302.344 39.62 309.467 38.8719 321.39C38.3856 328.25 38.3108 328.925 37.2634 331.137C34.3458 337.398 26.9395 341.26 20.1317 340.135C11.2666 338.673 5.4688 330.725 6.8528 321.952C7.67572 316.591 10.8926 312.242 15.7179 309.955C17.9622 308.943 18.7477 308.755 22.0768 308.643L25.9296 308.493L26.154 307.255C26.5281 305.231 26.2662 304.706 24.6204 304.294C22.3013 303.731 17.663 304.556 14.4087 306.131C9.28415 308.568 4.7581 314.116 3.52372 319.44C2.92523 322.027 3.03745 327.651 3.71074 329.975C5.69323 336.723 11.304 342.272 17.8874 343.997C22.4135 345.159 28.1365 344.522 32.0641 342.385C34.645 340.997 38.1986 337.586 39.7322 334.999C41.9765 331.287 42.4628 329.3 42.7994 322.177C43.1361 315.054 43.8468 309.842 45.2308 304.406C46.0911 300.882 48.4851 293.534 49.1584 292.446C49.6072 291.622 49.6446 291.659 48.0362 289.822ZM48.0736 88.5701C47.5873 87.9327 47.0262 87.3704 46.8766 87.3704C46.54 87.3704 44.5949 91.9068 43.2483 95.8058C40.7795 103.079 39.5452 109.977 38.8719 120.213C38.3856 127.561 38.3108 127.973 37.1886 130.26C35.7298 133.259 32.7 136.146 29.4083 137.721C27.0143 138.846 26.6403 138.921 22.5631 138.921C18.4859 138.921 18.1118 138.846 15.7179 137.721C7.67572 133.897 4.38404 124.412 8.27421 116.051C9.65821 113.164 12.8003 109.902 15.5309 108.628C18.1866 107.353 22.002 106.753 24.1341 107.203C24.9944 107.428 25.78 107.503 25.8548 107.466C25.8922 107.391 26.0418 106.491 26.1914 105.479C26.3784 103.754 26.341 103.604 25.5181 103.379C23.9097 102.929 20.1691 103.117 17.8874 103.679C11.304 105.404 5.69323 110.952 3.71074 117.701C3.03745 120.025 2.92523 125.649 3.52372 128.236C4.7581 133.559 9.28415 139.108 14.3713 141.545C22.0394 145.144 30.7175 143.719 36.5901 137.833C41.191 133.184 42.3132 130.223 42.7994 121.187C43.3605 110.352 44.8193 102.704 47.924 94.4937C48.7469 92.3192 49.308 90.3696 49.1958 90.1822C49.0835 89.9572 48.5599 89.2449 48.0736 88.5701ZM44.1834 284.648C43.5101 283.786 42.8742 283.074 42.7246 283.074C42.6124 283.074 41.8269 284.536 41.004 286.335C35.9542 297.245 33.2236 308.793 32.8122 320.94C32.5129 329.075 31.5778 331.512 28.0243 333.424C25.9296 334.549 19.3462 334.624 17.3263 333.537C14.1469 331.85 12.8377 329.638 12.5758 325.439C12.0522 318.09 15.4561 314.379 22.6753 314.379C24.6578 314.379 25.1815 314.266 25.1815 313.816C25.1815 313.516 25.2937 312.617 25.4433 311.792L25.6677 310.367L22.1516 310.48C17.9248 310.667 15.4935 311.679 12.6506 314.454C2.58858 324.389 12.2392 341.522 25.9296 338.036C30.306 336.911 33.3733 334.324 35.3557 330.088C36.3657 327.876 36.4779 327.276 36.7772 321.052C36.9642 317.378 37.413 312.767 37.7123 310.817C38.8719 303.731 41.4154 295.258 43.9964 289.822C44.7071 288.285 45.343 286.823 45.343 286.598C45.3804 286.373 44.8567 285.511 44.1834 284.648ZM44.0712 83.3588L42.762 81.6342L40.9292 85.5333C35.9916 95.9558 33.3733 107.128 32.7 120.625C32.3633 127.823 31.8022 129.66 29.5205 131.422C27.8747 132.66 24.0219 133.634 21.5905 133.372C14.9324 132.697 12.0896 129.173 12.5758 122.237C12.9873 116.238 15.7179 113.614 21.8524 113.314L25.1067 113.164L25.3311 111.44C25.4433 110.502 25.4433 109.64 25.3311 109.528C24.77 108.928 19.2714 109.415 17.2141 110.24C14.5957 111.215 11.1544 114.439 9.92005 116.988C6.51615 124.112 9.47118 132.51 16.5408 136.034C18.2615 136.859 19.234 137.083 22.002 137.158C26.4158 137.346 28.8098 136.484 31.8396 133.672C35.5428 130.26 36.7772 126.923 36.7772 120.475C36.7772 111.065 39.5826 98.5802 43.8094 89.0574C44.6323 87.1829 45.343 85.5333 45.343 85.3833C45.3804 85.1959 44.7819 84.2961 44.0712 83.3588ZM39.0215 76.498C38.8719 76.498 38.0115 77.9601 37.0764 79.7597C30.9045 91.6068 27.3136 104.916 26.8273 117.551C26.5655 124.299 26.4533 125.124 25.3685 126.211C24.1715 127.411 21.2539 127.486 19.8325 126.361C18.5981 125.386 18.1867 123.174 18.9348 121.375C19.6081 119.838 21.4783 119.013 23.5356 119.388L24.8074 119.65V117.551V115.489H22.2638C17.1767 115.489 14.7079 118.001 14.7079 123.137C14.7453 128.536 17.2515 131.16 22.3761 131.235C26.2662 131.235 28.8098 129.81 29.8197 126.998C30.1564 126.061 30.4556 123.324 30.6053 120.175C31.2037 106.791 33.9343 95.4684 39.1711 84.5585L41.4902 79.6847L40.3681 78.11C39.7696 77.2103 39.1337 76.498 39.0215 76.498ZM40.2559 278.987C39.6574 278.162 39.1337 277.488 39.0215 277.45C38.7596 277.45 35.2061 284.536 33.5977 288.285C29.5579 297.808 26.7151 311.23 26.6403 321.315C26.6403 326.113 26.1914 327.351 24.1715 328.025C20.7302 329.225 18.037 327.051 18.6355 323.527C19.0096 321.352 20.3562 320.452 22.8623 320.64L24.8448 320.827L24.7326 318.728L24.6204 316.628L22.8623 316.516C17.5882 316.178 14.7453 318.99 14.7079 324.539C14.7079 329.788 17.1393 332.187 22.4883 332.187C25.8922 332.187 27.9121 331.325 29.2587 329.375C30.0442 328.175 30.1938 327.426 30.4556 322.514C31.2786 307.93 33.7847 297.208 38.9841 286.073C40.2185 283.486 41.191 281.162 41.2284 280.937C41.2658 280.674 40.8169 279.775 40.2559 278.987ZM24.4334 323.414C24.1341 322.627 23.8349 322.439 22.8249 322.439C21.3287 322.439 20.6928 323.002 20.6928 324.351C20.6928 326.413 23.0868 327.351 24.2089 325.739C24.9196 324.764 24.9196 324.651 24.4334 323.414ZM24.2089 121.937C23.1242 120.4 20.6928 121.225 20.6928 123.174C20.6928 125.086 22.7127 125.836 24.0593 124.487C24.957 123.587 24.9944 123.062 24.2089 121.937Z" fill="#C3AB85"/>
</svg>
