<svg width="32" height="33" viewBox="0 0 32 33" fill="none" xmlns="http://www.w3.org/2000/svg">
<path d="M16 18.9887C14.5 18.9887 13.2 17.7887 13.2 16.1887C13.2 14.6887 14.4 13.3887 16 13.3887C17.5 13.3887 18.8 14.5887 18.8 16.1887C18.8 17.6887 17.5 18.9887 16 18.9887Z" fill="#EBD6AD"/>
<path fill-rule="evenodd" clip-rule="evenodd" d="M19.4 9.38866H12.6C11.8 9.48866 11.4 9.58866 11.1 9.68866C10.7 9.78866 10.4 9.98866 10.1 10.2887C9.86261 10.526 9.75045 10.7634 9.61489 11.0504C9.57916 11.126 9.5417 11.2052 9.5 11.2887C9.48453 11.3351 9.46667 11.3839 9.44752 11.4362C9.34291 11.722 9.2 12.1124 9.2 12.7887V19.5887C9.3 20.3887 9.4 20.7887 9.5 21.0887C9.6 21.4887 9.8 21.7887 10.1 22.0887C10.3374 22.326 10.5748 22.4382 10.8617 22.5738C10.9374 22.6095 11.0165 22.6469 11.1 22.6887C11.1464 22.7041 11.1952 22.722 11.2475 22.7411C11.5333 22.8457 11.9238 22.9887 12.6 22.9887H19.4C20.2 22.8887 20.6 22.7887 20.9 22.6887C21.3 22.5887 21.6 22.3887 21.9 22.0887C22.1374 21.8513 22.2495 21.6139 22.3851 21.327C22.4209 21.2513 22.4583 21.1721 22.5 21.0887C22.5155 21.0422 22.5333 20.9934 22.5525 20.9411C22.6571 20.6553 22.8 20.2649 22.8 19.5887V12.7887C22.7 11.9887 22.6 11.5887 22.5 11.2887C22.4 10.8887 22.2 10.5887 21.9 10.2887C21.6626 10.0513 21.4252 9.93911 21.1383 9.80354C21.0627 9.76784 20.9833 9.73033 20.9 9.68866C20.8536 9.67319 20.8048 9.65532 20.7525 9.63618C20.4667 9.53156 20.0762 9.38866 19.4 9.38866ZM16 11.8887C13.6 11.8887 11.7 13.7887 11.7 16.1887C11.7 18.5887 13.6 20.4887 16 20.4887C18.4 20.4887 20.3 18.5887 20.3 16.1887C20.3 13.7887 18.4 11.8887 16 11.8887ZM21.4 11.7887C21.4 12.3409 20.9523 12.7887 20.4 12.7887C19.8477 12.7887 19.4 12.3409 19.4 11.7887C19.4 11.2364 19.8477 10.7887 20.4 10.7887C20.9523 10.7887 21.4 11.2364 21.4 11.7887Z" fill="#EBD6AD"/>
<path fill-rule="evenodd" clip-rule="evenodd" d="M0 16.1887C0 7.3521 7.16344 0.18866 16 0.18866C24.8366 0.18866 32 7.3521 32 16.1887C32 25.0252 24.8366 32.1887 16 32.1887C7.16344 32.1887 0 25.0252 0 16.1887ZM12.6 7.88866H19.4C20.3 7.98866 20.9 8.08866 21.4 8.28866C22 8.58866 22.4 8.78866 22.9 9.28866C23.4 9.78866 23.7 10.2887 23.9 10.7887C24.1 11.2887 24.3 11.8887 24.3 12.7887V19.5887C24.2 20.4887 24.1 21.0887 23.9 21.5887C23.6 22.1887 23.4 22.5887 22.9 23.0887C22.4 23.5887 21.9 23.8887 21.4 24.0887C20.9 24.2887 20.3 24.4887 19.4 24.4887H12.6C11.7 24.3887 11.1 24.2887 10.6 24.0887C10 23.7887 9.6 23.5887 9.1 23.0887C8.6 22.5887 8.3 22.0887 8.1 21.5887C7.9 21.0887 7.7 20.4887 7.7 19.5887V12.7887C7.8 11.8887 7.9 11.2887 8.1 10.7887C8.4 10.1887 8.6 9.78866 9.1 9.28866C9.6 8.78866 10.1 8.48866 10.6 8.28866C11.1 8.08866 11.7 7.88866 12.6 7.88866Z" fill="#EBD6AD"/>
</svg>
