<svg width="32" height="33" viewBox="0 0 32 33" fill="none" xmlns="http://www.w3.org/2000/svg">
<path fill-rule="evenodd" clip-rule="evenodd" d="M16 32.1887C7.16344 32.1887 0 25.0252 0 16.1887C0 7.3521 7.16344 0.18866 16 0.18866C24.8366 0.18866 32 7.3521 32 16.1887C32 25.0252 24.8366 32.1887 16 32.1887ZM16.6919 12.196C15.2589 12.7921 12.3949 14.0257 8.09992 15.897C7.40248 16.1743 7.03714 16.4456 7.00388 16.7109C6.94767 17.1593 7.50915 17.3358 8.27374 17.5763C8.37774 17.609 8.4855 17.6429 8.59598 17.6788C9.34822 17.9233 10.3601 18.2094 10.8862 18.2207C11.3633 18.231 11.8959 18.0343 12.4839 17.6306C16.4968 14.9217 18.5683 13.5526 18.6983 13.523C18.7901 13.5022 18.9172 13.476 19.0034 13.5526C19.0895 13.6292 19.0811 13.7742 19.0719 13.8131C19.0163 14.0502 16.8123 16.0992 15.6717 17.1596C15.3161 17.4902 15.0639 17.7247 15.0124 17.7782C14.8969 17.8982 14.7791 18.0117 14.666 18.1208C13.9672 18.7944 13.4431 19.2997 14.695 20.1247C15.2967 20.5211 15.7781 20.849 16.2584 21.1761C16.7829 21.5333 17.306 21.8895 17.9829 22.3332C18.1554 22.4463 18.3201 22.5637 18.4805 22.6781C19.0909 23.1132 19.6393 23.5042 20.3168 23.4419C20.7105 23.4056 21.1172 23.0354 21.3237 21.9314C21.8118 19.3222 22.7712 13.6688 22.9929 11.3391C23.0123 11.135 22.9879 10.8738 22.9683 10.7591C22.9486 10.6445 22.9076 10.4811 22.7586 10.3601C22.582 10.2169 22.3095 10.1867 22.1877 10.1888C21.6335 10.1986 20.7834 10.4942 16.6919 12.196Z" fill="#EBD6AD"/>
</svg>
