<svg width="32" height="33" viewBox="0 0 32 33" fill="none" xmlns="http://www.w3.org/2000/svg">
<path fill-rule="evenodd" clip-rule="evenodd" d="M12.6 21.8887C13.6 22.4887 14.8 22.7887 16 22.7887C19.7 22.7887 22.6 19.7887 22.6 16.2887C22.6 14.4887 22 12.8887 20.7 11.5887C19.4 10.3887 17.8 9.68866 16 9.68866C12.4 9.68866 9.39999 12.6887 9.39999 16.2887C9.39999 17.4887 9.7 18.6887 10.4 19.7887L10.6 20.0887L9.89999 22.4887L12.4 21.7887L12.6 21.8887ZM18.2 17.1887C18.4 17.1887 19.4 17.6887 19.6 17.7887C19.6311 17.8042 19.6623 17.8174 19.6931 17.8304C19.8599 17.9008 20.0156 17.9665 20.1 18.3887C20.2 18.3887 20.2 18.7887 20 19.2887C19.9 19.6887 19.1 20.1887 18.7 20.1887C18.6322 20.1887 18.5673 20.1944 18.498 20.2005C18.1582 20.2306 17.712 20.2701 16.3 19.6887C14.5475 18.9877 13.3325 17.2886 12.9913 16.8114C12.9431 16.744 12.9124 16.701 12.9 16.6887C12.883 16.6546 12.8485 16.6003 12.8031 16.5286C12.5819 16.1793 12.1 15.4184 12.1 14.5887C12.1 13.5887 12.6 13.0887 12.8 12.8887C13 12.6887 13.2 12.6887 13.3 12.6887H13.7C13.8 12.6887 14 12.6887 14.1 12.9887C14.3 13.3887 14.7 14.3887 14.7 14.4887C14.7 14.522 14.7111 14.5553 14.7222 14.5887C14.7445 14.6553 14.7667 14.722 14.7 14.7887C14.65 14.8387 14.625 14.8887 14.6 14.9387C14.575 14.9887 14.55 15.0387 14.5 15.0887L14.2 15.3887C14.1 15.4887 14 15.5887 14.1 15.7887C14.2 15.9887 14.6 16.6887 15.2 17.1887C15.8751 17.7794 16.4078 18.014 16.6778 18.133C16.7278 18.155 16.7688 18.173 16.8 18.1887C17 18.1887 17.1 18.1887 17.2 18.0887C17.25 17.9887 17.375 17.8387 17.5 17.6887C17.625 17.5387 17.75 17.3887 17.8 17.2887C17.9 17.0887 18 17.0887 18.2 17.1887Z" fill="#EBD6AD"/>
<path fill-rule="evenodd" clip-rule="evenodd" d="M0 16.1887C0 7.3521 7.16344 0.18866 16 0.18866C24.8366 0.18866 32 7.3521 32 16.1887C32 25.0252 24.8366 32.1887 16 32.1887C7.16344 32.1887 0 25.0252 0 16.1887ZM16 8.18866C18.1 8.18866 20.1 8.98866 21.6 10.4887C23.1 11.9887 24 13.9887 24 16.0887C24 20.4887 20.4 24.0887 16 24.0887C14.7 24.0887 13.4 23.6887 12.2 23.0887L8 24.1887L9.10001 20.1887C8.40001 18.9887 8 17.5887 8 16.1887C8 11.7887 11.6 8.18866 16 8.18866Z" fill="#EBD6AD"/>
</svg>
