<svg width="52" height="52" viewBox="0 0 52 52" fill="none" xmlns="http://www.w3.org/2000/svg">
<path d="M36.4411 22.3194C36.3679 22.2023 36.2661 22.1058 36.1453 22.0389C36.0244 21.9721 35.8885 21.9372 35.7505 21.9375H26.813V9.74999C26.8119 9.56806 26.7498 9.39175 26.6366 9.24931C26.5234 9.10687 26.3657 9.00654 26.1887 8.9644C26.0117 8.92226 25.8257 8.94074 25.6604 9.01689C25.4952 9.09304 25.3603 9.22244 25.2773 9.38437L15.5273 28.8844C15.465 29.0081 15.4353 29.1456 15.4411 29.284C15.4469 29.4224 15.488 29.557 15.5605 29.675C15.6329 29.7931 15.7343 29.8906 15.8551 29.9584C15.9759 30.0263 16.112 30.0621 16.2505 30.0625H25.188V42.25C25.1886 42.4325 25.2506 42.6096 25.3641 42.7526C25.4776 42.8955 25.6359 42.9961 25.8136 43.0381C25.8746 43.0542 25.9374 43.0624 26.0005 43.0625C26.1505 43.062 26.2975 43.02 26.4251 42.9412C26.5528 42.8623 26.6561 42.7496 26.7236 42.6156L36.4736 23.1156C36.5365 22.9911 36.5665 22.8526 36.5608 22.7133C36.5552 22.5739 36.5139 22.4383 36.4411 22.3194ZM26.813 38.805V29.25C26.813 29.0345 26.7274 28.8278 26.575 28.6755C26.4226 28.5231 26.216 28.4375 26.0005 28.4375H17.5667L25.188 13.195V22.75C25.188 22.9655 25.2736 23.1721 25.4259 23.3245C25.5783 23.4769 25.785 23.5625 26.0005 23.5625H34.4342L26.813 38.805Z" fill="black"/>
<path d="M45.8332 11.8462C46.4508 11.0686 46.7614 10.0912 46.706 9.09969C46.6505 8.10817 46.233 7.1715 45.5326 6.46749L43.2332 4.16812C43.0786 4.02136 42.8736 3.93954 42.6604 3.93954C42.4472 3.93954 42.2422 4.02136 42.0876 4.16812L41.5107 4.745L39.2113 2.44562L38.0657 3.59125L40.3651 5.89062L39.2113 7.04437L36.912 4.745L35.7664 5.89062L38.0657 8.18999L37.4889 8.76687C37.3375 8.9191 37.2526 9.12503 37.2526 9.33968C37.2526 9.55433 37.3375 9.76026 37.4889 9.91249L39.7882 12.2119C40.4037 12.8325 41.2051 13.235 42.0705 13.3582C42.9358 13.4814 43.8177 13.3185 44.582 12.8944C47.3058 16.7205 48.7634 21.3034 48.7501 26C48.7468 29.7332 47.8256 33.4084 46.0676 36.7018C44.3097 39.9953 41.769 42.806 38.6692 44.8864C35.5694 46.9669 32.0056 48.2532 28.2916 48.6323C24.5777 49.0113 20.8275 48.4714 17.3714 47.06L16.7539 48.5631C20.4568 50.0759 24.475 50.6549 28.4544 50.2491C32.4339 49.8434 36.2525 48.4653 39.574 46.2363C42.8954 44.0072 45.6178 40.9957 47.5013 37.4668C49.3849 33.938 50.3718 30.0001 50.3751 26C50.3899 20.9214 48.8003 15.9679 45.8332 11.8462ZM44.387 11.0662C43.9265 11.5193 43.3064 11.7732 42.6604 11.7732C42.0144 11.7732 41.3943 11.5193 40.9339 11.0662L39.2113 9.33562L42.6645 5.89062L44.387 7.61312C44.8435 8.07175 45.0999 8.69254 45.0999 9.33968C45.0999 9.98682 44.8435 10.6076 44.387 11.0662ZM26.0001 1.625C19.5379 1.63295 13.3426 4.20358 8.77316 8.77305C4.20369 13.3425 1.63306 19.5378 1.6251 26C1.61033 31.0786 3.19988 36.032 6.16698 40.1537C5.54939 40.9314 5.23883 41.9088 5.29425 42.9003C5.34966 43.8918 5.7672 44.8285 6.4676 45.5325L8.76698 47.8319C8.84103 47.9074 8.92958 47.9672 9.02731 48.0077C9.12504 48.0482 9.22995 48.0685 9.33573 48.0675C9.44272 48.0686 9.54885 48.0483 9.64791 48.0078C9.74696 47.9674 9.83695 47.9075 9.9126 47.8319L10.4895 47.255L12.7889 49.5544L13.9345 48.4087L11.6351 46.1094L12.7889 44.9556L15.0882 47.255L16.2339 46.1094L13.9345 43.81L14.5114 43.2331C14.6627 43.0809 14.7476 42.875 14.7476 42.6603C14.7476 42.4457 14.6627 42.2397 14.5114 42.0875L12.212 39.7881C11.5929 39.1735 10.7919 38.775 9.92826 38.6521C9.06457 38.5291 8.18426 38.6882 7.41823 39.1056C4.6944 35.2795 3.23685 30.6966 3.2501 26C3.25677 19.9684 5.65578 14.1857 9.92079 9.92068C14.1858 5.65567 19.9685 3.25666 26.0001 3.24999C28.96 3.24382 31.892 3.82085 34.6289 4.94812L35.2464 3.43687C32.3119 2.2359 29.1708 1.62039 26.0001 1.625ZM7.61323 40.9337C8.07371 40.4807 8.69381 40.2268 9.33979 40.2268C9.98577 40.2268 10.6059 40.4807 11.0664 40.9337L12.7889 42.6644L9.33573 46.1094L7.61323 44.3869C7.15666 43.9282 6.90034 43.3074 6.90034 42.6603C6.90034 42.0132 7.15666 41.3924 7.61323 40.9337Z" fill="black"/>
</svg>
