<svg width="52" height="52" viewBox="0 0 52 52" fill="none" xmlns="http://www.w3.org/2000/svg">
<g clip-path="url(#clip0_2012_2507)">
<path fill-rule="evenodd" clip-rule="evenodd" d="M44.6281 52H37.9263C37.7647 52 37.6097 51.9358 37.4955 51.8216C37.3812 51.7073 37.317 51.5523 37.317 51.3907V42.7698C37.317 42.6082 37.3812 42.4532 37.4955 42.339C37.6097 42.2247 37.7647 42.1605 37.9263 42.1605H44.6281C44.7897 42.1605 44.9446 42.2247 45.0589 42.339C45.1731 42.4532 45.2373 42.6082 45.2373 42.7698V51.3907C45.2373 51.5523 45.1731 51.7073 45.0589 51.8216C44.9446 51.9358 44.7897 52 44.6281 52ZM38.5355 50.7815H44.0188V43.379H38.5355V50.7815ZM44.6281 27.3251H37.9263C37.7647 27.3251 37.6097 27.2609 37.4955 27.1467C37.3812 27.0324 37.317 26.8775 37.317 26.7159V18.3691H31.194C31.096 18.3736 30.9983 18.3544 30.9093 18.3132C30.8203 18.2719 30.7426 18.2097 30.6828 18.1319C30.623 18.0542 30.5828 17.9631 30.5658 17.8665C30.5487 17.7699 30.5552 17.6706 30.5847 17.577C30.6456 17.4857 30.6457 17.4247 30.6457 17.3333V10.1441L30.6152 9.90042C30.5866 9.80936 30.5797 9.71284 30.5952 9.61865C30.6107 9.52446 30.6481 9.43523 30.7045 9.35816C30.7608 9.28109 30.8344 9.21833 30.9195 9.17495C31.0045 9.13156 31.0985 9.10876 31.194 9.10838H40.6374C43.1659 9.10838 45.2373 11.1799 45.2373 13.7083V26.7463C45.2373 26.9079 45.1731 27.0629 45.0589 27.1772C44.9446 27.2914 44.7897 27.3251 44.6281 27.3251ZM38.5355 26.1066H44.0188V13.7083C44.003 12.8192 43.6407 11.9715 43.0091 11.3456C42.3775 10.7198 41.5266 10.3652 40.6374 10.3574H31.8642V17.1506H37.9263C38.0878 17.1506 38.2428 17.2148 38.3571 17.329C38.4713 17.4433 38.5355 17.5982 38.5355 17.7598V26.1676V26.1066ZM28.4219 18.3691H23.1518C23.0538 18.3736 22.9561 18.3544 22.8671 18.3132C22.7782 18.2719 22.7004 18.2097 22.6406 18.1319C22.5808 18.0542 22.5407 17.9631 22.5236 17.8665C22.5065 17.7699 22.513 17.6706 22.5425 17.577C22.6644 17.4552 22.6644 17.3638 22.6644 17.3029V10.1441L22.6035 9.90042C22.5754 9.81176 22.5681 9.71786 22.5819 9.62592C22.5958 9.53397 22.6305 9.44642 22.6835 9.36997C22.7364 9.29352 22.8061 9.2302 22.8873 9.18486C22.9685 9.13952 23.059 9.11336 23.1518 9.10838H28.3914C28.4869 9.10876 28.5809 9.13156 28.6659 9.17495C28.7509 9.21833 28.8246 9.28109 28.8809 9.35816C28.9372 9.43523 28.9747 9.52446 28.9902 9.61865C29.0057 9.71284 28.9988 9.80936 28.9702 9.90042C28.9479 9.97967 28.9376 10.0618 28.9397 10.1441V17.5161C28.9736 17.6065 28.9855 17.7037 28.9744 17.7996C28.9633 17.8955 28.9296 17.9874 28.8761 18.0677C28.8225 18.148 28.7507 18.2145 28.6664 18.2616C28.5821 18.3087 28.4879 18.3351 28.3914 18.3386L28.4219 18.3691ZM23.8524 17.1506H27.7517V10.3269H23.8524V17.1506ZM20.4102 18.3386H15.993C15.8315 18.3386 15.6765 18.2744 15.5622 18.1602C15.448 18.0459 15.3838 17.8909 15.3838 17.7294V9.71764C15.3838 9.63763 15.3995 9.55841 15.4302 9.48449C15.4608 9.41057 15.5057 9.3434 15.5622 9.28683C15.6188 9.23026 15.686 9.18538 15.7599 9.15476C15.8338 9.12414 15.913 9.10838 15.993 9.10838H20.4102C20.5056 9.10876 20.5996 9.13156 20.6847 9.17495C20.7697 9.21833 20.8433 9.28109 20.8997 9.35816C20.956 9.43523 20.9934 9.52446 21.0089 9.61865C21.0244 9.71284 21.0176 9.80936 20.9889 9.90042C20.9667 9.97967 20.9564 10.0618 20.9585 10.1441V17.5161C20.9923 17.6065 21.0042 17.7037 20.9932 17.7996C20.9821 17.8955 20.9484 17.9874 20.8948 18.0677C20.8413 18.148 20.7694 18.2145 20.6852 18.2616C20.6009 18.3087 20.5066 18.3351 20.4102 18.3386ZM16.6023 17.1201H19.74V10.3269H16.6023V17.1201Z" fill="black"/>
<path fill-rule="evenodd" clip-rule="evenodd" d="M21.7812 19.3744C21.2371 19.3664 20.7181 19.1446 20.3361 18.757C19.9542 18.3694 19.7402 17.847 19.7402 17.3029V10.1441C19.8015 9.64188 20.0444 9.17942 20.4232 8.844C20.802 8.50858 21.2905 8.32339 21.7965 8.32339C22.3024 8.32339 22.7909 8.50858 23.1697 8.844C23.5485 9.17942 23.7915 9.64188 23.8527 10.1441V17.3029C23.8527 18.43 22.9388 19.3744 21.7812 19.3744ZM21.7812 9.32163C21.5655 9.32921 21.3607 9.41829 21.208 9.57093C21.0554 9.72357 20.9663 9.9284 20.9587 10.1441V17.3029C20.9587 17.7598 21.3243 18.1558 21.7812 18.1558C22.0075 18.1558 22.2244 18.066 22.3844 17.906C22.5443 17.7461 22.6342 17.5291 22.6342 17.3029V10.1441C22.6342 10.0321 22.6121 9.9212 22.5693 9.81771C22.5264 9.71423 22.4636 9.6202 22.3844 9.54099C22.3052 9.46179 22.2111 9.39896 22.1077 9.35609C22.0042 9.31323 21.8933 9.32163 21.7812 9.32163ZM29.793 19.3744C29.2489 19.3664 28.7298 19.1446 28.3479 18.757C27.9659 18.3694 27.7519 17.847 27.752 17.3029V10.1441C27.8132 9.64188 28.0561 9.17942 28.4349 8.844C28.8138 8.50858 29.3022 8.32339 29.8082 8.32339C30.3142 8.32339 30.8026 8.50858 31.1814 8.844C31.5602 9.17942 31.8032 9.64188 31.8644 10.1441V17.3029C31.8644 18.43 30.9505 19.3744 29.793 19.3744ZM29.793 9.32163C29.5772 9.32921 29.3724 9.41829 29.2198 9.57093C29.0671 9.72357 28.978 9.9284 28.9705 10.1441V17.3029C28.9705 17.7598 29.336 18.1558 29.793 18.1558C30.0192 18.1558 30.2361 18.066 30.3961 17.906C30.5561 17.7461 30.6459 17.5291 30.6459 17.3029V10.1441C30.6459 10.0321 30.6239 9.9212 30.581 9.81771C30.5381 9.71423 30.4753 9.6202 30.3961 9.54099C30.3169 9.46179 30.2229 9.39896 30.1194 9.35609C30.0159 9.31323 29.905 9.32163 29.793 9.32163ZM46.3038 30.2496H36.2511C35.7488 30.1883 35.2864 29.9454 34.9509 29.5666C34.6155 29.1878 34.4303 28.6993 34.4303 28.1933C34.4303 27.6874 34.6155 27.1989 34.9509 26.8201C35.2864 26.4413 35.7488 26.1983 36.2511 26.1371H46.3038C46.806 26.1983 47.2685 26.4413 47.6039 26.8201C47.9393 27.1989 48.1245 27.6874 48.1245 28.1933C48.1245 28.6993 47.9393 29.1878 47.6039 29.5666C47.2685 29.9454 46.806 30.1883 46.3038 30.2496ZM36.2511 27.3556C36.0562 27.3929 35.8805 27.497 35.7541 27.6499C35.6277 27.8028 35.5586 27.995 35.5586 28.1933C35.5586 28.3917 35.6277 28.5839 35.7541 28.7368C35.8805 28.8897 36.0562 28.9937 36.2511 29.0311H46.3038C46.4986 28.9937 46.6744 28.8897 46.8007 28.7368C46.9271 28.5839 46.9963 28.3917 46.9963 28.1933C46.9963 27.995 46.9271 27.8028 46.8007 27.6499C46.6744 27.497 46.4986 27.3929 46.3038 27.3556H36.2511ZM46.3038 43.379H36.2511C35.7488 43.3178 35.2864 43.0748 34.9509 42.696C34.6155 42.3172 34.4303 41.8288 34.4303 41.3228C34.4303 40.8168 34.6155 40.3284 34.9509 39.9496C35.2864 39.5708 35.7488 39.3278 36.2511 39.2666H46.3038C46.806 39.3278 47.2685 39.5708 47.6039 39.9496C47.9393 40.3284 48.1245 40.8168 48.1245 41.3228C48.1245 41.8288 47.9393 42.3172 47.6039 42.696C47.2685 43.0748 46.806 43.3178 46.3038 43.379ZM36.2511 40.4851C36.0562 40.5224 35.8805 40.6265 35.7541 40.7794C35.6277 40.9323 35.5586 41.1244 35.5586 41.3228C35.5586 41.5212 35.6277 41.7133 35.7541 41.8662C35.8805 42.0191 36.0562 42.1232 36.2511 42.1605H46.3038C46.4986 42.1232 46.6744 42.0191 46.8007 41.8662C46.9271 41.7133 46.9963 41.5212 46.9963 41.3228C46.9963 41.1244 46.9271 40.9323 46.8007 40.7794C46.6744 40.6265 46.4986 40.5224 46.3038 40.4851H36.2511Z" fill="black"/>
<path fill-rule="evenodd" clip-rule="evenodd" d="M46.3036 40.4851H36.2509C36.0893 40.4851 35.9343 40.4209 35.8201 40.3066C35.7058 40.1924 35.6416 40.0374 35.6416 39.8758V29.6403C35.6416 29.4787 35.7058 29.3238 35.8201 29.2095C35.9343 29.0952 36.0893 29.0311 36.2509 29.0311H46.3036C46.4652 29.0311 46.6201 29.0952 46.7344 29.2095C46.8486 29.3238 46.9128 29.4787 46.9128 29.6403V39.8758C46.9128 40.0374 46.8486 40.1924 46.7344 40.3066C46.6201 40.4209 46.4652 40.4851 46.3036 40.4851ZM36.8601 39.2666H45.6943V30.2496H36.8601V39.2666Z" fill="black"/>
<path fill-rule="evenodd" clip-rule="evenodd" d="M11.8807 43.8055H6.70203C6.54044 43.8055 6.38548 43.7413 6.27122 43.6271C6.15696 43.5128 6.09277 43.3578 6.09277 43.1963V34.027C6.09277 32.2296 7.55499 30.7979 9.32183 30.7979H17.1508C17.3124 30.7979 17.4673 30.8621 17.5816 30.9763C17.6958 31.0906 17.76 31.2456 17.76 31.4072V38.0785C17.7642 38.161 17.7515 38.2436 17.7227 38.321C17.6939 38.3985 17.6497 38.4693 17.5927 38.5291C17.5357 38.589 17.4672 38.6366 17.3912 38.6691C17.3152 38.7016 17.2334 38.7183 17.1508 38.7182H12.5204V43.1963C12.5204 43.3578 12.4562 43.5128 12.342 43.6271C12.2277 43.7413 12.0728 43.8055 11.9112 43.8055H11.8807ZM7.28082 42.587H11.3019V38.0785C11.3019 37.9169 11.3661 37.762 11.4804 37.6477C11.5946 37.5334 11.7496 37.4692 11.9112 37.4692H16.5111V31.9859H9.29137C8.75814 31.9859 8.24675 32.1978 7.8697 32.5748C7.49265 32.9519 7.28082 33.4633 7.28082 33.9965V42.5261V42.587ZM36.2814 38.7182H20.0143C19.8527 38.7182 19.6977 38.654 19.5835 38.5398C19.4692 38.4255 19.405 38.2706 19.405 38.109V31.4072C19.405 31.2456 19.4692 31.0906 19.5835 30.9763C19.6977 30.8621 19.8527 30.7979 20.0143 30.7979H36.2814C36.443 30.7979 36.598 30.8621 36.7122 30.9763C36.8265 31.0906 36.8907 31.2456 36.8907 31.4072V38.109C36.8907 38.2706 36.8265 38.4255 36.7122 38.5398C36.598 38.654 36.443 38.7182 36.2814 38.7182ZM20.654 37.4997H35.6721V32.0164H20.654V37.4997Z" fill="black"/>
<path fill-rule="evenodd" clip-rule="evenodd" d="M18.5825 40.1195C18.3104 40.1195 18.0411 40.0659 17.7898 39.9618C17.5384 39.8577 17.3101 39.7051 17.1177 39.5128C16.9254 39.3204 16.7728 39.0921 16.6687 38.8408C16.5646 38.5894 16.511 38.3201 16.511 38.048V30.8893C16.511 30.3399 16.7292 29.813 17.1177 29.4245C17.5062 29.0361 18.0331 28.8178 18.5825 28.8178C19.1319 28.8178 19.6587 29.0361 20.0472 29.4245C20.4357 29.813 20.6539 30.3399 20.6539 30.8893V38.048C20.6539 39.1752 19.7401 40.1195 18.5825 40.1195ZM18.5825 30.0668C18.3614 30.0666 18.149 30.1523 17.9899 30.3057C17.8307 30.4592 17.7374 30.6684 17.7295 30.8893V38.048C17.7295 38.505 18.1255 38.901 18.5825 38.901C18.8087 38.901 19.0256 38.8111 19.1856 38.6512C19.3456 38.4912 19.4354 38.2743 19.4354 38.048V30.8893C19.4354 30.6631 19.3456 30.4461 19.1856 30.2861C19.0256 30.1262 18.8087 30.0668 18.5825 30.0668ZM12.8859 46.6995H5.69671C5.19446 46.6382 4.732 46.3953 4.39658 46.0165C4.06116 45.6377 3.87598 45.1492 3.87598 44.6432C3.87598 44.1373 4.06116 43.6488 4.39658 43.27C4.732 42.8912 5.19446 42.6482 5.69671 42.587H12.8859C13.3882 42.6482 13.8506 42.8912 14.1861 43.27C14.5215 43.6488 14.7067 44.1373 14.7067 44.6432C14.7067 45.1492 14.5215 45.6377 14.1861 46.0165C13.8506 46.3953 13.3882 46.6382 12.8859 46.6995ZM5.69671 43.8055C5.50188 43.8428 5.32614 43.9469 5.19975 44.0998C5.07336 44.2527 5.00422 44.4449 5.00422 44.6432C5.00422 44.8416 5.07336 45.0338 5.19975 45.1867C5.32614 45.3396 5.50188 45.4436 5.69671 45.481H12.8859C13.0808 45.4436 13.2565 45.3396 13.3829 45.1867C13.5093 45.0338 13.5784 44.8416 13.5784 44.6432C13.5784 44.4449 13.5093 44.2527 13.3829 44.0998C13.2565 43.9469 13.0808 43.8428 12.8859 43.8055H5.69671Z" fill="black"/>
<path fill-rule="evenodd" clip-rule="evenodd" d="M11.2716 52H7.3114C7.14982 52 6.99485 51.9358 6.8806 51.8215C6.76634 51.7073 6.70215 51.5523 6.70215 51.3907V46.0902C6.70215 45.9286 6.76634 45.7737 6.8806 45.6594C6.99485 45.5451 7.14982 45.481 7.3114 45.481H11.2716C11.4332 45.481 11.5881 45.5451 11.7024 45.6594C11.8166 45.7737 11.8808 45.9286 11.8808 46.0902V51.3907C11.8808 51.5523 11.8166 51.7073 11.7024 51.8215C11.5881 51.9358 11.4332 52 11.2716 52ZM7.92066 50.7815H10.6623V46.6995H7.92066V50.7815Z" fill="black"/>
<path fill-rule="evenodd" clip-rule="evenodd" d="M49.7761 52H2.19324C2.03166 52 1.87669 51.9358 1.76243 51.8216C1.64817 51.7073 1.58398 51.5523 1.58398 51.3907C1.58398 51.2292 1.64817 51.0742 1.76243 50.9599C1.87669 50.8457 2.03166 50.7815 2.19324 50.7815H49.7761C49.9377 50.7815 50.0927 50.8457 50.2069 50.9599C50.3212 51.0742 50.3854 51.2292 50.3854 51.3907C50.3854 51.5523 50.3212 51.7073 50.2069 51.8216C50.0927 51.9358 49.9377 52 49.7761 52ZM15.9929 21.0193H10.9665C10.8049 21.0193 10.65 20.9551 10.5357 20.8409C10.4215 20.7266 10.3573 20.5717 10.3573 20.4101V7.00645C10.3573 6.84486 10.4215 6.6899 10.5357 6.57564C10.65 6.46138 10.8049 6.39719 10.9665 6.39719H15.9624C16.124 6.39719 16.279 6.46138 16.3932 6.57564C16.5075 6.6899 16.5717 6.84486 16.5717 7.00645V20.4101C16.5717 20.5717 16.5075 20.7266 16.3932 20.8409C16.279 20.9551 16.1545 21.0193 15.9929 21.0193ZM11.5758 19.8008H15.3532V7.61571H11.5758V19.8008ZM27.5992 10.3269H24.0046C23.9246 10.3269 23.8454 10.3111 23.7715 10.2805C23.6975 10.2499 23.6304 10.205 23.5738 10.1484C23.5172 10.0919 23.4723 10.0247 23.4417 9.95079C23.4111 9.87687 23.3953 9.79765 23.3953 9.71764V5.78794C23.3953 5.62635 23.4595 5.47139 23.5738 5.35713C23.6881 5.24287 23.843 5.17868 24.0046 5.17868H27.5992C27.7608 5.17868 27.9158 5.24287 28.03 5.35713C28.1443 5.47139 28.2085 5.62635 28.2085 5.78794V9.68717C28.2085 9.76718 28.1927 9.84641 28.1621 9.92033C28.1315 9.99425 28.0866 10.0614 28.03 10.118C27.9734 10.1746 27.9063 10.2194 27.8324 10.2501C27.7584 10.2807 27.6792 10.3269 27.5992 10.3269ZM24.6139 9.10838H26.99V6.39719H24.6139V9.10838ZM27.5992 3.89924H24.0046C23.843 3.89924 23.6881 3.83506 23.5738 3.7208C23.4595 3.60654 23.3953 3.45157 23.3953 3.28999V2.3761C23.3953 1.73784 23.6489 1.12573 24.1002 0.674409C24.5515 0.223091 25.1637 -0.0304565 25.8019 -0.0304565C26.4402 -0.0304565 27.0523 0.223091 27.5036 0.674409C27.9549 1.12573 28.2085 1.73784 28.2085 2.3761V3.28999C28.2085 3.45157 28.1443 3.60654 28.03 3.7208C27.9158 3.83506 27.7608 3.89924 27.5992 3.89924ZM24.6139 2.68073H26.99V2.3761C26.99 2.06101 26.8648 1.75883 26.642 1.53603C26.4192 1.31322 26.117 1.18806 25.8019 1.18806C25.4868 1.18806 25.1846 1.31322 24.9618 1.53603C24.739 1.75883 24.6139 2.06101 24.6139 2.3761V2.68073Z" fill="black"/>
<path fill-rule="evenodd" clip-rule="evenodd" d="M29.7928 6.3972H21.7811C21.6195 6.3972 21.4646 6.33301 21.3503 6.21875C21.2361 6.10449 21.1719 5.94952 21.1719 5.78794V3.32045C21.1719 3.15887 21.2361 3.0039 21.3503 2.88964C21.4646 2.77539 21.6195 2.7112 21.7811 2.7112H29.7928C29.9544 2.7112 30.1094 2.77539 30.2237 2.88964C30.3379 3.0039 30.4021 3.15887 30.4021 3.32045V5.78794C30.4021 5.94952 30.3379 6.10449 30.2237 6.21875C30.1094 6.33301 29.9544 6.3972 29.7928 6.3972ZM22.3904 5.17868H29.1836V3.92971H22.3904V5.17868Z" fill="black"/>
</g>
<defs>
<clipPath id="clip0_2012_2507">
<rect width="52" height="52" fill="white"/>
</clipPath>
</defs>
</svg>
