<svg width="52" height="52" viewBox="0 0 52 52" fill="none" xmlns="http://www.w3.org/2000/svg">
<path d="M44.138 3.25H14.8758C14.6604 3.25 14.4537 3.3356 14.3013 3.48798C14.1489 3.64035 14.0633 3.84701 14.0633 4.0625C14.0633 4.27799 14.1489 4.48465 14.3013 4.63702C14.4537 4.7894 14.6604 4.875 14.8758 4.875H44.138C44.93 4.87586 45.6894 5.19092 46.2493 5.75104C46.8093 6.31115 47.1241 7.07055 47.1248 7.86256V37.1231C47.1248 37.3386 47.2104 37.5453 47.3628 37.6976C47.5151 37.85 47.7218 37.9356 47.9373 37.9356C48.1528 37.9356 48.3594 37.85 48.5118 37.6976C48.6642 37.5453 48.7498 37.3386 48.7498 37.1231V7.86256C48.7485 6.63977 48.2622 5.46742 47.3977 4.6027C46.5331 3.73798 45.3608 3.25151 44.138 3.25ZM48.5109 43.5622L44.7125 39.7637C44.6375 39.6861 44.5479 39.6243 44.4487 39.5817C44.3496 39.5391 44.243 39.5167 44.1351 39.5157C44.0272 39.5148 43.9202 39.5354 43.8204 39.5762C43.7205 39.6171 43.6298 39.6774 43.5535 39.7537C43.4772 39.83 43.4169 39.9207 43.3761 40.0205C43.3352 40.1204 43.3146 40.2274 43.3156 40.3353C43.3165 40.4431 43.3389 40.5498 43.3815 40.6489C43.4241 40.748 43.486 40.8377 43.5636 40.9126L45.9759 43.3258H11.6616C10.8694 43.3251 10.1099 43.0101 9.54978 42.45C8.98965 41.8899 8.67468 41.1303 8.67403 40.3382V6.02387L11.0872 8.437C11.2404 8.585 11.4456 8.6669 11.6587 8.66505C11.8717 8.6632 12.0755 8.57775 12.2261 8.4271C12.3768 8.27646 12.4622 8.07267 12.4641 7.85964C12.4659 7.6466 12.384 7.44136 12.236 7.28813L8.43678 3.48888C8.36132 3.41333 8.27171 3.3534 8.17308 3.31251C8.07444 3.27163 7.96871 3.25058 7.86194 3.25058C7.75516 3.25058 7.64944 3.27163 7.5508 3.31251C7.45216 3.3534 7.36255 3.41333 7.28709 3.48888L3.48784 7.28813C3.33984 7.44136 3.25795 7.6466 3.2598 7.85964C3.26165 8.07267 3.3471 8.27646 3.49774 8.4271C3.64839 8.57775 3.85217 8.6632 4.06521 8.66505C4.27824 8.6669 4.48348 8.585 4.63672 8.437L7.04984 6.02387V40.3382C7.05113 41.5609 7.53743 42.7332 8.40202 43.5978C9.26661 44.4624 10.4389 44.9487 11.6616 44.9499H45.9759L43.5628 47.3631C43.4873 47.4386 43.4275 47.5282 43.3867 47.6268C43.3459 47.7254 43.3249 47.8311 43.325 47.9378C43.325 48.0445 43.3461 48.1502 43.3869 48.2488C43.4278 48.3473 43.4877 48.4369 43.5632 48.5123C43.6387 48.5878 43.7283 48.6476 43.8269 48.6884C43.9255 48.7292 44.0312 48.7502 44.1379 48.7502C44.2446 48.7501 44.3503 48.7291 44.4489 48.6882C44.5475 48.6473 44.637 48.5874 44.7125 48.5119L48.5109 44.7127C48.6621 44.5594 48.7469 44.3528 48.7469 44.1374C48.7469 43.9221 48.6621 43.7155 48.5109 43.5622Z" fill="black"/>
<path d="M17.709 16.4491C17.4935 16.4491 17.2868 16.5347 17.1345 16.687C16.9821 16.8394 16.8965 17.0461 16.8965 17.2616V33.0371C16.8965 33.2526 16.9821 33.4592 17.1345 33.6116C17.2868 33.764 17.4935 33.8496 17.709 33.8496C17.9245 33.8496 18.1311 33.764 18.2835 33.6116C18.4359 33.4592 18.5215 33.2526 18.5215 33.0371V21.2834C18.5215 20.5853 18.7988 19.9157 19.2925 19.422C19.7862 18.9283 20.4558 18.6509 21.154 18.6509C21.8522 18.6509 22.5218 18.9283 23.0154 19.422C23.5091 19.9157 23.7865 20.5853 23.7865 21.2834V33.0371C23.7865 33.2526 23.8721 33.4592 24.0245 33.6116C24.1768 33.764 24.3835 33.8496 24.599 33.8496C24.8145 33.8496 25.0211 33.764 25.1735 33.6116C25.3259 33.4592 25.4115 33.2526 25.4115 33.0371V21.2834C25.4053 20.9339 25.4689 20.5866 25.5984 20.2619C25.7279 19.9372 25.9208 19.6415 26.1658 19.3922C26.4109 19.1428 26.7031 18.9447 27.0255 18.8095C27.3479 18.6743 27.694 18.6047 28.0436 18.6047C28.3932 18.6047 28.7393 18.6743 29.0617 18.8095C29.3841 18.9447 29.6763 19.1428 29.9213 19.3922C30.1663 19.6415 30.3592 19.9372 30.4888 20.2619C30.6183 20.5866 30.6818 20.9339 30.6757 21.2834V33.0371C30.6757 33.2526 30.7613 33.4592 30.9136 33.6116C31.066 33.764 31.2727 33.8496 31.4882 33.8496C31.7037 33.8496 31.9103 33.764 32.0627 33.6116C32.2151 33.4592 32.3007 33.2526 32.3007 33.0371V21.2834C32.2921 20.3881 32.0019 19.5181 31.4712 18.797C30.9405 18.0758 30.1963 17.54 29.344 17.2655C28.4917 16.991 27.5746 16.9918 26.7228 17.2677C25.871 17.5437 25.1276 18.0808 24.5982 18.8029C24.2617 18.339 23.8349 17.948 23.3434 17.6533C22.8519 17.3586 22.306 17.1662 21.7383 17.0878C21.1707 17.0094 20.593 17.0466 20.0401 17.1971C19.4871 17.3476 18.9703 17.6083 18.5207 17.9636V17.2616C18.5207 17.0461 18.4351 16.8394 18.2827 16.687C18.1303 16.5347 17.9245 16.4491 17.709 16.4491ZM38.1978 11.8584C37.459 11.8593 36.7507 12.1532 36.2284 12.6757C35.7061 13.1982 35.4124 13.9065 35.4117 14.6453C35.4117 14.8608 35.4973 15.0675 35.6497 15.2198C35.8021 15.3722 36.0087 15.4578 36.2242 15.4578C36.4397 15.4578 36.6464 15.3722 36.7988 15.2198C36.9511 15.0675 37.0367 14.8608 37.0367 14.6453C37.048 14.3449 37.1752 14.0605 37.3917 13.852C37.6082 13.6434 37.8972 13.5269 38.1978 13.5269C38.4984 13.5269 38.7873 13.6434 39.0039 13.852C39.2204 14.0605 39.3476 14.3449 39.3589 14.6453C39.3589 15.9973 37.0717 18.9573 35.6295 20.5051C35.5215 20.6209 35.4497 20.7657 35.4229 20.9217C35.3961 21.0778 35.4155 21.2382 35.4787 21.3834C35.5419 21.5286 35.6461 21.6522 35.7786 21.7389C35.911 21.8256 36.0659 21.8718 36.2242 21.8717H40.1714C40.3868 21.8717 40.5935 21.7861 40.7459 21.6337C40.8983 21.4813 40.9839 21.2747 40.9839 21.0592C40.9839 20.8437 40.8983 20.637 40.7459 20.4847C40.5935 20.3323 40.3868 20.2467 40.1714 20.2467H38.0036C39.2451 18.7265 40.9839 16.302 40.9839 14.6445C40.9832 13.9057 40.6895 13.1974 40.1672 12.6749C39.6449 12.1524 38.9366 11.8585 38.1978 11.8576V11.8584Z" fill="black"/>
</svg>
