<svg width="52" height="52" viewBox="0 0 52 52" fill="none" xmlns="http://www.w3.org/2000/svg">
<g clip-path="url(#clip0_2012_527)">
<path d="M25.9998 50.3327C7.34212 50.3327 -4.26428 30.1424 4.78414 14.077C5.77986 16.5662 5.80683 17.0782 6.53387 17.0782C7.10518 17.0782 7.50008 16.4991 7.28666 15.9657C5.47103 11.4265 5.69733 11.7185 5.41588 11.5336C4.98479 11.2504 4.79418 11.4077 0.696857 12.2272C-0.259723 12.4184 -0.116971 13.8338 0.855121 13.8338C0.970093 13.8338 0.813349 13.8583 3.32844 13.3552C-6.36723 30.7018 6.30808 51.9549 25.9998 51.9549C27.0723 51.9549 27.0736 50.3327 25.9998 50.3327ZM51.939 38.8184C51.727 37.7591 50.5518 38.2686 48.6711 38.6448C58.3716 21.2901 45.6796 0.045105 25.9998 0.045105C24.9276 0.045105 24.9259 1.66729 25.9998 1.66729C44.6577 1.66729 56.2639 21.8577 47.2155 37.923L46.2191 35.432C45.821 34.436 44.3141 35.0374 44.713 36.0343C46.3873 40.2201 46.2913 40.7724 47.2448 40.5843C47.3108 40.5713 51.1837 39.7966 51.3028 39.7728C51.5137 39.7306 51.6993 39.6063 51.8186 39.4273C51.9379 39.2483 51.9812 39.0293 51.939 38.8184Z" fill="#212530"/>
<path d="M37.3555 13.8336C34.0818 13.8336 28.0776 18.1452 26.9847 22.9087C26.3506 22.7067 25.6697 22.7045 25.0343 22.9024C24.8733 19.2693 26.8113 17.6849 26.8113 14.6447C26.8113 11.0668 23.9005 8.15601 20.3226 8.15601C16.7447 8.15601 13.8339 11.0668 13.8339 14.6447C13.8339 17.9184 18.1455 23.9226 22.909 25.0155C22.7069 25.6496 22.7047 26.3305 22.9027 26.9659C19.2697 27.1269 17.6849 25.189 14.645 25.189C11.067 25.189 8.15625 28.0998 8.15625 31.6777C8.15625 35.2556 11.067 38.1664 14.645 38.1664C17.9186 38.1664 23.9228 33.8549 25.0158 29.0914C25.6499 29.2934 26.3308 29.2956 26.9661 29.0976C27.1271 32.7308 25.1891 34.3153 25.1891 37.3554C25.1891 40.9333 28.0999 43.8441 31.6779 43.8441C35.2558 43.8441 38.1666 40.9333 38.1666 37.3554C38.1666 34.0817 33.855 28.0775 29.0915 26.9846C29.2935 26.3505 29.2957 25.6696 29.0978 25.0343C32.735 24.8733 34.3117 26.8112 37.3555 26.8112C40.9334 26.8112 43.8442 23.9004 43.8442 20.3225C43.8442 16.7445 40.9334 13.8336 37.3555 13.8336ZM18.2246 20.0715C12.6117 13.7082 16.9635 9.77829 20.3226 9.77829C23.006 9.77829 25.1891 11.9613 25.1891 14.6448C25.1891 17.3271 23.0669 19.1367 23.4459 23.4743C21.7345 23.1446 19.8723 21.9395 18.2246 20.0715ZM20.0717 33.7756C13.7086 39.3883 9.77843 35.037 9.77843 31.6776C9.77843 28.9941 11.9616 26.8111 14.645 26.8111C17.3224 26.8111 19.14 28.9328 23.4744 28.5543C23.1449 30.2657 21.9397 32.128 20.0717 33.7756ZM24.3781 26C24.3781 23.8529 27.6224 23.8557 27.6224 26C27.6224 28.147 24.3781 28.1443 24.3781 26ZM33.7758 31.9286C39.3886 38.2917 35.0372 42.2218 31.6779 42.2218C28.9944 42.2218 26.8113 40.0387 26.8113 37.3553C26.8113 34.6769 28.9329 32.8584 28.5546 28.5258C30.266 28.8553 32.1281 30.0605 33.7758 31.9286ZM37.3555 25.1889C34.691 25.1889 32.8537 23.0683 28.5261 23.4457C28.8556 21.7343 30.0608 19.8721 31.9288 18.2244C38.2919 12.6116 42.222 16.963 42.222 20.3224C42.222 23.0059 40.039 25.1889 37.3555 25.1889Z" fill="#212530"/>
</g>
<defs>
<clipPath id="clip0_2012_527">
<rect width="52" height="52" fill="white"/>
</clipPath>
</defs>
</svg>
