<svg width="50" height="51" viewBox="0 0 50 51" fill="none" xmlns="http://www.w3.org/2000/svg">
<g clip-path="url(#clip0_2011_2528)">
<path d="M46.4274 50.7659H3.56117C3.25195 50.7659 3 50.5152 3 50.2076V48.2367C3 43.11 6.28683 38.5757 11.1884 36.9807L19.4456 34.2578V31.0109C19.4456 30.7033 19.6976 30.4527 20.0068 30.4527C20.316 30.4527 20.5679 30.7033 20.5679 31.0109V34.668C20.5679 34.9072 20.4191 35.1237 20.19 35.192L11.5549 38.0402C7.09995 39.4871 4.11088 43.5885 4.11088 48.2367V49.6494H45.8662V48.2253C45.8662 43.5771 42.8886 39.4757 38.4451 38.0174L29.81 35.1693C29.5809 35.0895 29.4321 34.8844 29.4321 34.6452V30.9881C29.4321 30.6805 29.684 30.4299 29.9932 30.4299C30.3024 30.4299 30.5544 30.6805 30.5544 30.9881V34.2465L38.8116 36.9693C43.7017 38.5757 47 43.11 47 48.2253V50.2076C46.9885 50.5152 46.7366 50.7659 46.4274 50.7659Z" fill="#EBD6AD"/>
<path d="M24.9885 33.13C22.6408 33.13 20.4076 32.2641 18.7012 30.6805C16.9833 29.097 15.9297 26.9437 15.7465 24.631L15.506 21.0651C15.4831 20.7575 15.7236 20.4955 16.0328 20.4727C16.342 20.4499 16.6054 20.6891 16.6283 20.9967L16.8688 24.5627C17.0292 26.5906 17.9568 28.4817 19.4685 29.8831C20.9688 31.273 22.9386 32.0363 25 32.0363C29.2259 32.0363 32.7991 28.7552 33.1426 24.5627L33.3717 21.0081C33.3946 20.7005 33.658 20.4727 33.9672 20.4841C34.2764 20.5069 34.5055 20.7689 34.494 21.0765L34.2535 24.6424C34.0588 26.9665 33.0167 29.1197 31.2874 30.6919C29.558 32.2641 27.3248 33.13 24.9885 33.13ZM38.6741 50.7659C38.3649 50.7659 38.113 50.5152 38.113 50.2076V46.7784C38.113 46.4708 38.3649 46.2202 38.6741 46.2202C38.9833 46.2202 39.2353 46.4708 39.2353 46.7784V50.2076C39.2353 50.5152 38.9833 50.7659 38.6741 50.7659ZM11.3144 50.7659C11.0052 50.7659 10.7533 50.5152 10.7533 50.2076V46.7784C10.7533 46.4708 11.0052 46.2202 11.3144 46.2202C11.6236 46.2202 11.8756 46.4708 11.8756 46.7784V50.2076C11.8756 50.5152 11.6236 50.7659 11.3144 50.7659ZM25.1145 39.077C25 39.077 24.874 39.0428 24.771 38.963L19.6517 35.1009C19.4112 34.9186 19.354 34.5654 19.5487 34.3262C19.7319 34.0756 20.0869 34.03 20.3274 34.2237L25.4466 38.0858C25.6871 38.2681 25.7444 38.6213 25.5497 38.8605C25.4466 38.9972 25.2749 39.077 25.1145 39.077Z" fill="#EBD6AD"/>
<path d="M22.9157 50.7659C22.6065 50.7659 22.3545 50.5152 22.3545 50.2076V40.6833C22.3545 40.239 22.5606 39.8175 22.9042 39.5441L29.6268 34.2123C29.8673 34.0186 30.2223 34.0642 30.417 34.3034C30.6117 34.5427 30.5659 34.8958 30.3254 35.0895L23.6028 40.4213C23.5226 40.4783 23.4768 40.5808 23.4768 40.6833V50.2076C23.4768 50.5152 23.2249 50.7659 22.9157 50.7659Z" fill="#EBD6AD"/>
<path d="M25.5841 42.6543C25.5497 42.6543 25.5154 42.6543 25.4695 42.6429L25.3665 42.6087C25.3321 42.5973 25.2978 42.5745 25.2634 42.5631C25.229 42.5403 25.2061 42.5176 25.1832 42.4948C25.1603 42.472 25.1374 42.4378 25.1145 42.415C25.0916 42.3808 25.0802 42.3467 25.0687 42.3125L25.0344 42.2099C25.0229 42.1758 25.0229 42.1416 25.0229 42.096C25.0229 42.0618 25.0229 42.0277 25.0344 41.9821L25.0687 41.8796C25.0802 41.8454 25.1031 41.8112 25.1145 41.777C25.1374 41.7429 25.1603 41.7201 25.1832 41.6973C25.2061 41.6745 25.2405 41.6517 25.2634 41.6289C25.2978 41.6061 25.3207 41.5947 25.3665 41.5834L25.4695 41.5492C25.5383 41.5378 25.6184 41.5378 25.6871 41.5492L25.7902 41.5834C25.8246 41.5947 25.8589 41.6175 25.8818 41.6289C25.9162 41.6517 25.9391 41.6745 25.962 41.6973C25.9849 41.7201 26.0078 41.7542 26.0307 41.777C26.0536 41.8112 26.0651 41.8454 26.0765 41.8796L26.1109 41.9821C26.1223 42.0163 26.1223 42.0505 26.1223 42.096C26.1223 42.1302 26.1223 42.1644 26.1109 42.2099L26.0765 42.3125C26.0651 42.3467 26.0422 42.3808 26.0307 42.415C26.0078 42.4492 25.9849 42.472 25.962 42.4948C25.9391 42.5176 25.9047 42.5403 25.8818 42.5631C25.8475 42.5859 25.8246 42.5973 25.7902 42.6087L25.6871 42.6429C25.6528 42.6429 25.6184 42.6543 25.5841 42.6543ZM25.5841 45.3999C25.5497 45.3999 25.5154 45.3999 25.4695 45.3885L25.3665 45.3543C25.3321 45.3429 25.2978 45.3202 25.2634 45.3088C25.229 45.286 25.2061 45.2632 25.1832 45.2404C25.1603 45.2176 25.1374 45.1834 25.1145 45.1607C25.0916 45.1265 25.0802 45.1037 25.0687 45.0695L25.0344 44.967C25.0229 44.9328 25.0229 44.8986 25.0229 44.8531C25.0229 44.8189 25.0229 44.7847 25.0344 44.7391L25.0687 44.6366C25.0802 44.6024 25.1031 44.5682 25.1145 44.5341C25.1374 44.4999 25.1603 44.4771 25.1832 44.4543C25.2061 44.4315 25.2405 44.4087 25.2634 44.386C25.2978 44.3632 25.3321 44.3518 25.3665 44.3404L25.4695 44.3062C25.5383 44.2948 25.6184 44.2948 25.6871 44.3062L25.7902 44.3404C25.8246 44.3518 25.8589 44.3746 25.8933 44.386C25.9276 44.4087 25.9505 44.4315 25.9735 44.4543C25.9964 44.4771 26.0193 44.5113 26.0422 44.5341C26.0651 44.5682 26.0765 44.6024 26.088 44.6366L26.1223 44.7391C26.1338 44.7733 26.1338 44.8075 26.1338 44.8531C26.1338 44.8872 26.1338 44.9214 26.1223 44.967L26.088 45.0695C26.0765 45.1037 26.0536 45.1379 26.0422 45.1607C26.0193 45.1948 25.9964 45.2176 25.9735 45.2404C25.8704 45.3429 25.733 45.3999 25.5841 45.3999ZM25.5841 48.1342C25.5497 48.1342 25.5154 48.1341 25.4695 48.1228L25.3665 48.0886C25.3321 48.0772 25.2978 48.0544 25.2634 48.043C25.229 48.0202 25.2061 47.9974 25.1832 47.9747C25.0802 47.8721 25.0229 47.724 25.0229 47.5759C25.0229 47.5417 25.0229 47.5076 25.0344 47.462L25.0687 47.3595C25.0802 47.3253 25.1031 47.2911 25.1145 47.2569C25.1374 47.2227 25.1603 47.2 25.1832 47.1772C25.2061 47.1544 25.2405 47.1316 25.2634 47.1088C25.2978 47.086 25.3321 47.0746 25.3665 47.0632L25.4695 47.0291C25.5383 47.0177 25.6184 47.0177 25.6871 47.0291L25.7902 47.0632C25.8246 47.0746 25.8589 47.0974 25.8818 47.1088C25.9162 47.1316 25.9391 47.1544 25.9735 47.1772C25.9964 47.2 26.0193 47.2341 26.0422 47.2569C26.0651 47.2911 26.0765 47.3253 26.088 47.3595L26.1223 47.462C26.1338 47.4962 26.1338 47.5303 26.1338 47.5759C26.1338 47.724 26.0765 47.8721 25.9735 47.9747C25.9505 47.9974 25.9162 48.0202 25.8933 48.043C25.8589 48.0658 25.836 48.0772 25.8017 48.0886L25.6986 48.1228C25.6528 48.1341 25.6184 48.1342 25.5841 48.1342ZM34.1046 19.2081H15.8954C15.5862 19.2081 15.3342 18.9575 15.3342 18.6498C15.3342 18.3422 15.5862 18.0916 15.8954 18.0916H34.1046C34.4138 18.0916 34.6658 18.3422 34.6658 18.6498C34.6543 18.9688 34.4138 19.2081 34.1046 19.2081Z" fill="#EBD6AD"/>
<path d="M20.4992 19.2081C20.19 19.2081 19.9381 18.9575 19.9381 18.6498V16.7017C19.9381 16.3941 20.19 16.1435 20.4992 16.1435C20.8084 16.1435 21.0604 16.3941 21.0604 16.7017V18.6612C21.0604 18.9688 20.8084 19.2081 20.4992 19.2081ZM24.9885 19.2081C24.6793 19.2081 24.4274 18.9575 24.4274 18.6498V16.7017C24.4274 16.3941 24.6793 16.1435 24.9885 16.1435C25.2978 16.1435 25.5497 16.3941 25.5497 16.7017V18.6612C25.5497 18.9688 25.2978 19.2081 24.9885 19.2081ZM29.4779 19.2081C29.1687 19.2081 28.9167 18.9575 28.9167 18.6498V16.7017C28.9167 16.3941 29.1687 16.1435 29.4779 16.1435C29.7871 16.1435 30.039 16.3941 30.039 16.7017V18.6612C30.039 18.9688 29.7871 19.2081 29.4779 19.2081Z" fill="#EBD6AD"/>
<path d="M33.9557 21.5892H16.0213C15.632 21.5892 15.3113 21.2702 15.3113 20.8828V17.0093C13.2384 15.9953 11.9214 13.8307 12.0016 11.5066C12.1161 8.51035 14.5554 6.02674 17.556 5.85585C18.1629 5.82167 18.7585 5.87863 19.3311 6.01535C20.0869 3.52034 22.3774 1.76587 24.9771 1.76587C27.5882 1.76587 29.8673 3.52034 30.6231 6.01535C31.2072 5.86724 31.8027 5.81028 32.3982 5.84445C35.4102 6.01535 37.8496 8.49895 37.9526 11.5066C38.0557 13.8307 36.7501 15.984 34.6658 16.9979V20.8714C34.6543 21.2702 34.3451 21.5892 33.9557 21.5892ZM33.532 20.4727V16.6561C33.532 16.4283 33.6694 16.2232 33.8756 16.1435C35.7194 15.3915 36.9105 13.5573 36.8188 11.575C36.7387 9.13695 34.7574 7.12044 32.3181 6.98372C31.6767 6.94955 31.0354 7.04069 30.4055 7.26854C30.2566 7.32551 30.0849 7.30272 29.936 7.22297C29.7985 7.14322 29.6955 7.00651 29.6611 6.84701C29.2145 4.59126 27.1989 2.89375 24.9656 2.89375C22.7324 2.89375 20.7054 4.59126 20.2702 6.84701C20.2358 7.00651 20.1327 7.14322 19.9953 7.22297C19.8579 7.30272 19.6746 7.31411 19.5258 7.25715C18.9188 7.0293 18.2775 6.93815 17.6132 6.98372C15.1853 7.12044 13.2041 9.13695 13.1124 11.5636C13.0437 13.5459 14.2348 15.3915 16.0786 16.1548C16.2847 16.246 16.4222 16.4397 16.4222 16.6675V20.4727H33.532Z" fill="#EBD6AD"/>
</g>
<defs>
<clipPath id="clip0_2011_2528">
<rect width="50" height="50" fill="white" transform="translate(0 0.765869)"/>
</clipPath>
</defs>
</svg>
