<svg width="50" height="51" viewBox="0 0 50 51" fill="none" xmlns="http://www.w3.org/2000/svg">
<g clip-path="url(#clip0_2011_1600)">
<path d="M44.8938 11.7979L38.2649 18.4268C38.1924 18.4993 38.1348 18.5854 38.0956 18.6802C38.0563 18.775 38.0361 18.8766 38.0361 18.9791C38.0361 19.0817 38.0563 19.1833 38.0956 19.2781C38.1348 19.3728 38.1924 19.4589 38.2649 19.5315C38.3375 19.604 38.4236 19.6615 38.5183 19.7008C38.6131 19.7401 38.7147 19.7603 38.8173 19.7603C38.9198 19.7603 39.0214 19.7401 39.1162 19.7008C39.211 19.6615 39.2971 19.604 39.3696 19.5315L45.9985 12.9026C46.071 12.83 46.1286 12.7439 46.1678 12.6492C46.2071 12.5544 46.2273 12.4528 46.2273 12.3502C46.2273 12.2476 46.2071 12.1461 46.1678 12.0513C46.1286 11.9565 46.071 11.8704 45.9985 11.7979C45.926 11.7253 45.8399 11.6678 45.7451 11.6286C45.6503 11.5893 45.5488 11.5691 45.4462 11.5691C45.3436 11.5691 45.242 11.5893 45.1472 11.6286C45.0525 11.6678 44.9664 11.7253 44.8938 11.7979Z" fill="#EBD6AD"/>
<path d="M49.3782 12.7135C49.5149 11.9581 49.4235 10.8026 48.2086 9.58853C46.9938 8.37368 45.8391 8.28149 45.0836 8.41978C43.3063 8.74165 41.9875 10.5706 41.3266 11.7049C41.2915 11.6831 41.2532 11.6698 41.2172 11.6487C41.9493 10.0026 41.711 8.60415 41.4993 7.91196C42.1297 6.96978 43.5618 4.49321 42.6305 2.62993C42.0125 1.39321 40.5485 0.765869 38.2813 0.765869C35.5172 0.765869 33.7415 1.37212 33.0024 2.56899C32.7122 3.04523 32.5904 3.60509 32.6563 4.15884C31.8625 4.45806 31.2032 4.84946 30.6774 5.32368C30.0219 4.92603 29.1868 4.67212 28.125 4.67212C25.1602 4.67212 23.9391 6.63306 23.5696 8.2479C21.5071 7.57134 19.5875 8.04087 18.4985 9.55337C17.3836 11.0995 17.3415 13.7432 19.7602 16.162C21.068 17.4706 22.1524 19.5042 22.993 22.2127C21.9869 22.1864 20.9848 22.3485 20.0383 22.6909C20.0128 22.7007 19.9878 22.7116 19.9633 22.7237L18.761 23.3245C18.6891 23.3604 18.6141 23.3877 18.5399 23.4182C18.4579 21.126 19.4375 19.1049 19.4493 19.0823C19.5084 18.9632 19.5362 18.831 19.53 18.6982C19.5238 18.5653 19.4838 18.4363 19.4138 18.3232C19.3438 18.2102 19.2461 18.1169 19.1299 18.0522C19.0138 17.9874 18.883 17.9534 18.75 17.9534H15.625C15.4178 17.9534 15.2191 18.0357 15.0726 18.1822C14.9261 18.3287 14.8438 18.5274 14.8438 18.7346C14.8438 20.3182 15.0407 21.9104 15.2438 23.1393L14.4118 22.7237C14.3873 22.7115 14.3623 22.7005 14.3368 22.6909C14.2047 22.6416 11.0688 21.494 8.67817 22.9385C7.32505 23.7565 6.5102 25.201 6.2563 27.2307C6.11565 28.2991 6.08972 29.3795 6.17895 30.4534H5.53989C5.21826 30.4531 4.90003 30.5191 4.60502 30.6472C4.31001 30.7753 4.04454 30.9628 3.82517 31.198C3.6058 31.4332 3.43722 31.7111 3.32994 32.0143C3.22266 32.3175 3.17897 32.6396 3.20161 32.9604C3.47895 36.8518 4.7852 46.3409 10.8946 50.3885C11.2772 50.6383 11.7251 50.7696 12.1821 50.7659H37.9368C38.4063 50.7659 38.8508 50.6354 39.2243 50.3885C45.3329 46.3416 46.6391 36.8526 46.918 32.9604C46.9404 32.6401 46.8968 32.3187 46.79 32.0159C46.6832 31.7132 46.5153 31.4356 46.2969 31.2002C46.2735 31.1745 46.2438 31.1565 46.2188 31.1323C47.186 30.4276 47.6508 29.6885 47.618 28.8932C47.5797 27.976 46.8797 27.3417 46.311 26.9752C46.6368 26.0448 46.6032 25.2534 46.2102 24.6174C45.8196 23.9854 45.179 23.6877 44.6469 23.5471C44.6841 23.1067 44.6298 22.6633 44.4875 22.2448C45.7032 21.5299 46.4805 20.4792 46.6805 19.244C46.836 18.2854 46.6235 17.3143 46.0922 16.4706C47.2266 15.8104 49.0555 14.4909 49.3782 12.7135ZM33.8079 5.42368C33.9184 5.3922 34.0206 5.33673 34.1072 5.26121C34.1939 5.18569 34.2628 5.09198 34.309 4.98678C34.3553 4.88158 34.3778 4.76746 34.3749 4.65257C34.372 4.53769 34.3438 4.42485 34.2922 4.32212C34.2899 4.31743 34.0641 3.82134 34.3305 3.38931C34.5282 3.07056 35.3079 2.32837 38.2813 2.32837C39.3993 2.32837 40.8188 2.50181 41.2329 3.32759C41.8079 4.47524 40.5024 6.65571 39.9993 7.32915C39.9148 7.44466 39.8631 7.58079 39.8495 7.72322C39.8359 7.86565 39.8609 8.00912 39.9219 8.13853C39.9493 8.19634 40.5118 9.46509 39.7266 11.1229C39.3378 11.0612 38.9419 11.0588 38.5524 11.1159C38.5047 11.1237 38.4594 11.1385 38.4118 11.1479C38.2266 10.1182 37.6688 9.2229 36.811 8.64165C35.6805 7.87524 34.2133 7.74321 32.679 8.24712C32.5294 7.57475 32.2432 6.94028 31.8383 6.38306C32.3282 5.98071 32.9852 5.65806 33.8079 5.42368ZM20.8649 15.0573C19.0954 13.2877 19.0383 11.4768 19.7657 10.4667C20.5571 9.36743 22.168 9.20806 23.8688 10.0588C23.988 10.1183 24.1204 10.1464 24.2535 10.1403C24.3865 10.1343 24.5159 10.0944 24.6292 10.0243C24.7425 9.95429 24.836 9.85647 24.9009 9.74014C24.9658 9.62381 25 9.49283 25 9.35962C25 9.23228 25.0352 6.23462 28.125 6.23462C31.1352 6.23462 31.2477 9.04321 31.25 9.35962C31.2501 9.49284 31.2841 9.62386 31.349 9.7402C31.4139 9.85655 31.5075 9.95436 31.6209 10.0244C31.7342 10.0943 31.8636 10.1342 31.9967 10.1401C32.1298 10.146 32.2622 10.1177 32.3813 10.0581C33.7461 9.37368 35.0415 9.32837 35.936 9.9354C36.5446 10.3479 36.8727 11.0229 36.8993 11.8088C36.279 12.2502 35.7508 12.8721 35.3571 13.6596C34.5571 15.2596 34.7547 17.2877 35.0071 18.5612C34.5503 18.505 34.0871 18.532 33.6399 18.6409L32.7547 18.8604C31.383 19.2067 30.1601 19.9875 29.2688 21.0862L26.8946 24.0088C26.286 23.2393 25.5196 22.7659 24.7016 22.4995C23.7618 19.1752 22.4743 16.6666 20.8649 15.0573ZM23.6727 30.4534L25.6993 27.9588L26.6641 28.9237C26.7365 28.9965 26.8226 29.0543 26.9173 29.0937C27.0121 29.1331 27.1138 29.1534 27.2165 29.1534C27.3191 29.1534 27.4208 29.1331 27.5156 29.0937C27.6103 29.0543 27.6964 28.9965 27.7688 28.9237C27.8414 28.8512 27.899 28.7651 27.9383 28.6703C27.9776 28.5755 27.9979 28.4739 27.9979 28.3713C27.9979 28.2687 27.9776 28.1671 27.9383 28.0724C27.899 27.9776 27.8414 27.8915 27.7688 27.819L26.6899 26.7393L27.6805 25.5198L28.3219 26.1612C28.3943 26.234 28.4804 26.2918 28.5752 26.3312C28.67 26.3706 28.7716 26.3909 28.8743 26.3909C28.9769 26.3909 29.0786 26.3706 29.1734 26.3312C29.2682 26.2918 29.3542 26.234 29.4266 26.1612C29.4992 26.0887 29.5568 26.0026 29.5961 25.9078C29.6354 25.813 29.6557 25.7114 29.6557 25.6088C29.6557 25.5062 29.6354 25.4046 29.5961 25.3099C29.5568 25.2151 29.4992 25.129 29.4266 25.0565L28.6711 24.301L30.1563 22.4721L31.6368 23.9518C31.7092 24.0246 31.7952 24.0824 31.89 24.1218C31.9848 24.1612 32.0864 24.1815 32.1891 24.1815C32.2918 24.1815 32.3934 24.1612 32.4882 24.1218C32.583 24.0824 32.6691 24.0246 32.7415 23.9518C32.8141 23.8793 32.8717 23.7932 32.911 23.6984C32.9503 23.6037 32.9705 23.5021 32.9705 23.3995C32.9705 23.2969 32.9503 23.1953 32.911 23.1005C32.8717 23.0057 32.8141 22.9196 32.7415 22.8471L31.2336 21.3401C31.7901 20.8855 32.4382 20.5567 33.1336 20.376L34.0165 20.1573C34.3973 20.0632 34.796 20.0689 35.1739 20.1739C35.5519 20.2788 35.8965 20.4795 36.1743 20.7565L37.0415 21.6237C37.3178 21.9021 37.518 22.2468 37.6227 22.6248C37.7275 23.0028 37.7334 23.4013 37.6399 23.7823L37.4219 24.6612C37.1582 25.7058 36.5631 26.637 35.7258 27.3151L31.8633 30.4534H23.6727ZM17.5969 19.5159C17.2641 20.4987 16.8907 22.0213 16.9899 23.6799L16.9243 23.676C16.7274 22.6377 16.4868 21.1018 16.4227 19.5151L17.5969 19.5159ZM7.8063 27.4252C7.9977 25.8963 8.56098 24.8377 9.4813 24.2792C11.1125 23.2877 13.4547 24.0385 13.7563 24.1424L14.918 24.7229C15.6241 25.0716 16.401 25.2529 17.1884 25.2528C17.9759 25.2527 18.7527 25.0711 19.4586 24.7221L20.6219 24.1409C21.0297 23.9956 24.3735 22.8979 25.8719 25.2674L21.6594 30.4534H7.75239C7.65708 29.5159 7.67114 28.5034 7.8063 27.4252ZM38.3618 49.0854C38.2344 49.1649 38.0868 49.2059 37.9368 49.2034H12.1821C12.032 49.2059 11.8844 49.1649 11.7571 49.0854C6.22583 45.4221 5.02114 36.5104 4.75942 32.8495C4.75166 32.7425 4.76612 32.6351 4.80189 32.5339C4.83766 32.4328 4.89397 32.3402 4.96728 32.2619C5.04058 32.1836 5.1293 32.1213 5.22785 32.079C5.32639 32.0366 5.43263 32.0152 5.53989 32.0159H44.579C44.6862 32.015 44.7924 32.0364 44.8909 32.0787C44.9895 32.121 45.0782 32.1832 45.1515 32.2614C45.2248 32.3396 45.2812 32.4322 45.317 32.5333C45.3527 32.6344 45.3672 32.7417 45.3594 32.8487C45.0977 36.5104 43.8915 45.4221 38.3618 49.0854ZM44.8829 25.4417C45.0602 25.7315 44.9641 26.2776 44.6141 26.9792C44.5659 27.0756 44.5382 27.181 44.5328 27.2886C44.5273 27.3963 44.5442 27.5039 44.5824 27.6048C44.6205 27.7056 44.6791 27.7974 44.7545 27.8745C44.8299 27.9516 44.9204 28.0122 45.0204 28.0526C45.4368 28.2229 46.0454 28.644 46.0579 28.9588C46.0602 29.0206 46.0149 29.5799 44.3352 30.4534H34.3415L36.7086 28.5299C37.809 27.6374 38.5912 26.4129 38.9383 25.0393L39.1571 24.1573C39.2663 23.7099 39.2934 23.2464 39.2368 22.7893C39.9386 22.932 40.6526 23.0065 41.3688 23.012C41.9133 23.012 42.4766 22.9526 43.025 22.8245C43.1188 23.137 43.1149 23.5284 42.993 24.012C42.9646 24.1266 42.9626 24.2462 42.9871 24.3618C43.0116 24.4774 43.0619 24.5859 43.1344 24.6791C43.2805 24.8682 43.5079 24.9807 43.7461 24.9838C44.0274 24.9877 44.6766 25.1034 44.8829 25.4417ZM47.8407 12.4331C47.586 13.8448 45.393 15.1307 44.5696 15.5073C44.4551 15.5599 44.355 15.6394 44.2778 15.739C44.2006 15.8386 44.1486 15.9554 44.1262 16.0794C44.1038 16.2035 44.1116 16.3311 44.1491 16.4514C44.1866 16.5717 44.2526 16.6812 44.3415 16.7706C44.9743 17.4042 45.2649 18.2143 45.1383 18.994C45.0016 19.8362 44.3985 20.5643 43.4399 21.044C41.6758 21.9284 38.9336 21.1323 38.5555 21.0151C38.4333 20.8385 38.2964 20.6725 38.1461 20.519L37.279 19.6518C37.1259 19.5016 36.9602 19.3649 36.7836 19.2432C36.668 18.8698 35.8711 16.1245 36.7547 14.3588C37.2336 13.3995 37.9618 12.7963 38.804 12.6596C39.5852 12.5331 40.3946 12.8229 41.0274 13.4565C41.1167 13.5454 41.2262 13.6113 41.3466 13.6488C41.4669 13.6863 41.5945 13.6942 41.7185 13.6718C41.8425 13.6494 41.9593 13.5974 42.0589 13.5202C42.1585 13.443 42.238 13.3429 42.2907 13.2284C42.6672 12.4049 43.9532 10.2127 45.3649 9.95728C45.9344 9.85415 46.5055 10.0956 47.1047 10.694C47.704 11.2924 47.9438 11.8612 47.8407 12.4331Z" fill="#EBD6AD"/>
<path d="M24.1367 12.1354C24.0908 12.0437 24.0273 11.9618 23.9497 11.8946C23.8722 11.8274 23.7822 11.7761 23.6848 11.7437C23.5875 11.7113 23.4847 11.6983 23.3823 11.7056C23.28 11.7129 23.1801 11.7403 23.0883 11.7862C22.9965 11.8321 22.9147 11.8957 22.8475 11.9732C22.7803 12.0508 22.729 12.1408 22.6965 12.2381C22.6641 12.3355 22.6512 12.4383 22.6585 12.5406C22.6658 12.643 22.6932 12.7429 22.7391 12.8347L24.3016 15.9597C24.346 16.0538 24.4089 16.138 24.4864 16.2075C24.5639 16.277 24.6545 16.3303 24.7528 16.3642C24.8512 16.3982 24.9554 16.4122 25.0592 16.4054C25.1631 16.3985 25.2645 16.371 25.3576 16.3244C25.4507 16.2778 25.5335 16.2131 25.6012 16.1341C25.6689 16.055 25.7201 15.9633 25.7519 15.8642C25.7836 15.765 25.7953 15.6606 25.7861 15.5569C25.7769 15.4532 25.7471 15.3524 25.6984 15.2604L24.1367 12.1354ZM30.1195 14.7464C30.3051 14.8385 30.5195 14.8533 30.716 14.7877C30.9124 14.7221 31.075 14.5814 31.168 14.3964L31.9492 12.8339C32.0419 12.6485 32.0572 12.434 31.9918 12.2373C31.9263 12.0407 31.7853 11.8782 31.6 11.7854C31.5082 11.7395 31.4083 11.7122 31.306 11.7049C31.2036 11.6976 31.1008 11.7105 31.0035 11.7429C30.8068 11.8084 30.6443 11.9493 30.5516 12.1347L29.7703 13.6972C29.7243 13.789 29.6968 13.889 29.6894 13.9914C29.682 14.0938 29.6949 14.1967 29.7274 14.2942C29.7598 14.3916 29.8111 14.4817 29.8784 14.5593C29.9457 14.6369 30.0277 14.7005 30.1195 14.7464ZM36.5289 7.77373C36.6285 7.79864 36.732 7.8037 36.8335 7.78859C36.935 7.77349 37.0326 7.73853 37.1206 7.68571C37.2086 7.6329 37.2853 7.56325 37.3464 7.48077C37.4075 7.39828 37.4517 7.30457 37.4766 7.20498L38.2578 4.07998C38.2826 3.98041 38.2876 3.87693 38.2725 3.77544C38.2573 3.67395 38.2223 3.57644 38.1694 3.48847C38.1166 3.40051 38.0469 3.32382 37.9644 3.26278C37.882 3.20174 37.7882 3.15754 37.6887 3.13271C37.5891 3.10789 37.4856 3.10291 37.3841 3.11808C37.2826 3.13324 37.1851 3.16825 37.0972 3.2211C37.0092 3.27395 36.9325 3.34361 36.8715 3.42609C36.8104 3.50858 36.7662 3.60229 36.7414 3.70185L35.9602 6.82685C35.9103 7.02782 35.9422 7.24037 36.0488 7.41787C36.1554 7.59538 36.3281 7.72335 36.5289 7.77373ZM41.8383 25.8479L40.2758 26.6292C40.0903 26.7218 39.9493 26.8843 39.8836 27.0809C39.818 27.2775 39.8332 27.4922 39.9258 27.6776C40.0184 27.8631 40.1809 28.0041 40.3775 28.0698C40.5741 28.1354 40.7888 28.1203 40.9742 28.0276L42.5367 27.2464C42.6285 27.2005 42.7104 27.137 42.7777 27.0595C42.845 26.982 42.8964 26.892 42.9289 26.7947C42.9614 26.6973 42.9744 26.5945 42.9671 26.4921C42.9599 26.3897 42.9326 26.2898 42.8867 26.1979C42.8409 26.1061 42.7774 26.0242 42.6999 25.957C42.6224 25.8897 42.5323 25.8383 42.435 25.8058C42.2384 25.7402 42.0237 25.7553 41.8383 25.8479Z" fill="#EBD6AD"/>
</g>
<defs>
<clipPath id="clip0_2011_1600">
<rect width="50" height="50" fill="white" transform="translate(0 0.765869)"/>
</clipPath>
</defs>
</svg>
