<svg width="50" height="51" viewBox="0 0 50 51" fill="none" xmlns="http://www.w3.org/2000/svg">
<g clip-path="url(#clip0_2011_2319)">
<path d="M49.9514 42.0459L47.0371 31.9307H47.7745C48.7184 31.9307 49.4861 31.1629 49.4861 30.2192V8.65784C49.4861 8.25325 49.1583 7.92542 48.7537 7.92542C46.2128 7.92542 44.1456 9.9925 44.1456 12.5334V24.7566H36.3029C32.751 24.7566 29.8612 27.6463 29.8612 31.1983C29.8612 31.6029 30.1891 31.9307 30.5937 31.9307H34.0915L31.1498 42.1414H30.5741V41.5858C30.5741 39.6223 29.0621 38.0062 27.1415 37.8383V25.2597H28.8561C29.8034 25.2597 30.5742 24.4889 30.5742 23.5415V22.3818H32.6172C33.0218 22.3818 33.3496 22.0539 33.3496 21.6493C33.3496 21.2448 33.0218 20.9169 32.6172 20.9169H11.1262V18.6556H39.0346V20.9169H36.0352C35.6306 20.9169 35.3027 21.2448 35.3027 21.6493C35.3027 22.0539 35.6306 22.3818 36.0352 22.3818H39.2741C39.9497 22.3818 40.4994 21.8322 40.4994 21.1566V18.416C40.4994 17.7405 39.9497 17.1907 39.2741 17.1907H37.0684L37.6145 14.3939C37.8058 14.3897 37.9878 14.3108 38.1217 14.1741C38.2555 14.0373 38.3304 13.8536 38.3305 13.6622C38.3305 13.2576 38.0026 12.9298 37.5981 12.9298H37.3873C37.3874 12.9166 37.3888 12.9037 37.3888 12.8906C37.3896 12.2029 37.2017 11.5282 36.8456 10.9399L37.7226 10.0629C37.7906 9.9949 37.8445 9.91416 37.8813 9.82529C37.9182 9.73643 37.9371 9.64118 37.9371 9.54499C37.9371 9.44881 37.9182 9.35356 37.8813 9.2647C37.8445 9.17583 37.7906 9.09509 37.7226 9.02708C37.6546 8.95906 37.5738 8.90511 37.4849 8.8683C37.3961 8.83149 37.3008 8.81255 37.2046 8.81255C37.1085 8.81255 37.0132 8.83149 36.9244 8.8683C36.8355 8.90511 36.7547 8.95906 36.6867 9.02708L35.8593 9.85452C35.2085 9.36927 34.4182 9.10751 33.6065 9.10833C31.5209 9.10833 29.8242 10.805 29.8242 12.8906C29.8242 12.9037 29.8256 12.9166 29.8257 12.9298H29.6149C29.5187 12.9298 29.4234 12.9487 29.3346 12.9855C29.2457 13.0223 29.1649 13.0763 29.0969 13.1443C29.0289 13.2123 28.975 13.2931 28.9382 13.3819C28.9014 13.4708 28.8824 13.566 28.8824 13.6622C28.8824 14.0613 29.2016 14.385 29.5984 14.3939L30.1445 17.1907H20.0161L20.5622 14.3939C20.7535 14.3897 20.9356 14.3108 21.0694 14.1741C21.2032 14.0373 21.2782 13.8536 21.2782 13.6622C21.2782 13.2576 20.9504 12.9298 20.5458 12.9298H20.3351C20.3352 12.9166 20.3365 12.9037 20.3365 12.8906C20.3365 10.805 18.6398 9.10833 16.5542 9.10833C15.7424 9.10749 14.9522 9.36921 14.3014 9.85442L13.474 9.02708C13.3367 8.88971 13.1504 8.81255 12.9561 8.81255C12.7619 8.81255 12.5756 8.88971 12.4382 9.02708C12.3008 9.16444 12.2237 9.35074 12.2237 9.54499C12.2237 9.73925 12.3008 9.92555 12.4382 10.0629L13.3151 10.9399C12.9591 11.5282 12.7712 12.2029 12.772 12.8906C12.772 12.9037 12.7734 12.9166 12.7734 12.9298H12.5626C12.4664 12.9298 12.3712 12.9487 12.2823 12.9855C12.1934 13.0223 12.1127 13.0763 12.0447 13.1443C11.9767 13.2123 11.9227 13.2931 11.8859 13.3819C11.8491 13.4708 11.8302 13.566 11.8302 13.6622C11.8302 14.0613 12.1494 14.3851 12.5464 14.3939L13.0924 17.1907H10.8866C10.211 17.1907 9.66134 17.7405 9.66134 18.416V21.1566C9.66134 21.8322 10.211 22.3818 10.8866 22.3818H19.5865V23.5415C19.5865 24.4889 20.3573 25.2597 21.3047 25.2597H23.0192V37.8382C21.0985 38.0061 19.5866 39.6222 19.5866 41.5857V42.1413H19.0109L16.0692 31.9307H19.5665C19.9711 31.9307 20.2989 31.6029 20.2989 31.1983C20.2989 27.6462 17.4092 24.7565 13.8571 24.7565H6.01446V20.0041C6.01446 19.5995 5.68663 19.2717 5.28204 19.2717C4.87745 19.2717 4.54962 19.5995 4.54962 20.0041V24.9994C4.54962 25.6732 5.09776 26.2214 5.77159 26.2214H13.857C16.3526 26.2214 18.425 28.0675 18.7802 30.4659H2.38556C2.32015 30.4658 2.25745 30.4398 2.21121 30.3935C2.16497 30.3473 2.13895 30.2846 2.13888 30.2192V9.47639C3.52003 9.80735 4.54972 11.0524 4.54972 12.5334V16.5862C4.54972 16.9907 4.87755 17.3186 5.28214 17.3186C5.68673 17.3186 6.01456 16.9907 6.01456 16.5862V12.5334C6.01456 9.9925 3.94737 7.92542 1.40646 7.92542C1.31027 7.9254 1.21502 7.94434 1.12615 7.98114C1.03729 8.01794 0.95654 8.07189 0.888526 8.13991C0.820512 8.20792 0.766563 8.28867 0.729759 8.37754C0.692956 8.4664 0.67402 8.56165 0.674033 8.65784V30.2191C0.674033 31.1629 1.44181 31.9307 2.38556 31.9307H2.9628L0.0486426 42.0458C-0.0586816 42.4182 0.0134864 42.8093 0.246397 43.119C0.479307 43.4286 0.835264 43.6062 1.22286 43.6062H2.83438C3.37589 43.6062 3.8587 43.2428 4.0086 42.7225L7.11769 31.9307H11.9141L15.0232 42.7225C15.1731 43.2428 15.6559 43.6062 16.1974 43.6062H33.9631C34.5046 43.6062 34.9875 43.2427 35.1373 42.7225L36.2654 38.8069C36.2921 38.7144 36.3002 38.6177 36.2894 38.5221C36.2787 38.4265 36.2492 38.334 36.2027 38.2498C36.1561 38.1656 36.0935 38.0914 36.0183 38.0315C35.9431 37.9715 35.8568 37.9269 35.7644 37.9003C35.3758 37.788 34.9698 38.0127 34.8578 38.4014L33.7804 42.1413H32.6742L35.616 31.9306H36.7221L35.8041 35.1169C35.7775 35.2093 35.7693 35.3061 35.7801 35.4017C35.7909 35.4973 35.8204 35.5898 35.8669 35.674C35.9134 35.7581 35.9761 35.8323 36.0513 35.8923C36.1265 35.9523 36.2128 35.9968 36.3052 36.0235C36.3976 36.0501 36.4944 36.0582 36.59 36.0475C36.6855 36.0367 36.7781 36.0072 36.8622 35.9607C36.9464 35.9141 37.0206 35.8515 37.0806 35.7763C37.1405 35.7011 37.1851 35.6148 37.2117 35.5224L38.2465 31.9306H42.8821L45.9912 42.7225C46.1411 43.2428 46.6239 43.6062 47.1654 43.6062H48.777C49.1646 43.6062 49.5204 43.4286 49.7534 43.119C49.9864 42.8093 50.0587 42.4181 49.9514 42.0459ZM33.6065 10.5732C34.8844 10.5732 35.9239 11.6128 35.9239 12.8906C35.9239 12.9038 35.9225 12.9166 35.9223 12.9298H31.2907C31.2905 12.9166 31.2891 12.9037 31.2891 12.8906C31.289 11.6127 32.3286 10.5732 33.6065 10.5732ZM36.1218 14.3948L35.5759 17.1908H31.6371L31.0912 14.3948H36.1218ZM16.5542 10.5732C17.8321 10.5732 18.8717 11.6128 18.8717 12.8906C18.8717 12.9038 18.8702 12.9166 18.87 12.9298H14.2385C14.2383 12.9166 14.2368 12.9037 14.2368 12.8906C14.2367 11.6127 15.2764 10.5732 16.5542 10.5732ZM19.0694 14.3948L18.5235 17.1908H14.5848L14.0389 14.3948H19.0694ZM2.65167 42.1413H1.54552L4.48722 31.9307H5.59327L2.65167 42.1413ZM16.3802 42.1413L13.4386 31.9307H14.5446L17.4863 42.1413H16.3802ZM21.3046 23.7948C21.2374 23.7948 21.173 23.7681 21.1255 23.7206C21.078 23.6731 21.0513 23.6087 21.0513 23.5415V22.3818H29.1094V23.5415C29.1093 23.6087 29.0826 23.6731 29.0351 23.7206C28.9876 23.7681 28.9232 23.7948 28.8561 23.7948H21.3046ZM25.6768 25.2597V37.8228H24.484V25.2597H25.6768ZM29.1094 42.1413H21.0513V41.5857C21.0513 40.3185 22.0821 39.2877 23.3492 39.2877H26.8113C28.0785 39.2877 29.1093 40.3186 29.1093 41.5857L29.1094 42.1413ZM31.38 30.4658C31.7352 28.0675 33.8075 26.2214 36.303 26.2214H44.3885C45.0623 26.2214 45.6106 25.6733 45.6106 24.9994V12.5334C45.6106 11.0524 46.6402 9.80735 48.0214 9.47639V30.2191C48.0213 30.2845 47.9953 30.3472 47.949 30.3934C47.9027 30.4397 47.84 30.4657 47.7746 30.4657L31.38 30.4658ZM47.3483 42.1413L44.4067 31.9306H45.5127L48.4544 42.1413H47.3483Z" fill="#EBD6AD"/>
</g>
<defs>
<clipPath id="clip0_2011_2319">
<rect width="50" height="50" fill="white" transform="translate(0 0.765869)"/>
</clipPath>
</defs>
</svg>
